<svg xmlns="http://www.w3.org/2000/svg" xmlns:xlink="http://www.w3.org/1999/xlink" width="1920" zoomAndPan="magnify" viewBox="0 0 1440 809.999993" height="1080" preserveAspectRatio="xMidYMid meet" version="1.0"><defs><g/><clipPath id="9ee9a9d8c8"><path d="M 0.320312 0.359375 L 1186.640625 0.359375 L 1186.640625 670.679688 L 0.320312 670.679688 Z M 0.320312 0.359375 " clip-rule="nonzero"/></clipPath><clipPath id="2cf1d5e330"><rect x="0" width="1187" y="0" height="671"/></clipPath><clipPath id="7f4c2561aa"><rect x="0" width="1187" y="0" height="671"/></clipPath></defs><g transform="matrix(1, 0, 0, 1, 118, 69)"><g clip-path="url(#7f4c2561aa)"><g clip-path="url(#9ee9a9d8c8)"><g transform="matrix(1, 0, 0, 1, 0.000000000000014211, 0.000000000000042633)"><g clip-path="url(#2cf1d5e330)"><g fill="#ca0013" fill-opacity="1"><g transform="translate(180.060852, 329.370962)"><g><path d="M 110.03125 0 L 21.671875 0 L 21.671875 -249.265625 L 110.75 -249.265625 C 135.820312 -249.265625 157.425781 -244.289062 175.5625 -234.34375 C 193.695312 -224.40625 207.632812 -210.144531 217.375 -191.5625 C 227.113281 -172.988281 231.984375 -150.757812 231.984375 -124.875 C 231.984375 -98.90625 227.09375 -76.585938 217.3125 -57.921875 C 207.53125 -39.265625 193.53125 -24.945312 175.3125 -14.96875 C 157.101562 -4.988281 135.34375 0 110.03125 0 Z M 74.359375 -45.15625 L 107.828125 -45.15625 C 131.285156 -45.15625 149.078125 -51.484375 161.203125 -64.140625 C 173.335938 -76.796875 179.40625 -97.039062 179.40625 -124.875 C 179.40625 -152.539062 173.335938 -172.660156 161.203125 -185.234375 C 149.078125 -197.816406 131.328125 -204.109375 107.953125 -204.109375 L 74.359375 -204.109375 Z M 74.359375 -45.15625 "/></g></g></g><g fill="#ca0013" fill-opacity="1"><g transform="translate(388.879728, 329.370962)"><g><path d="M 21.671875 0 L 21.671875 -249.265625 L 189.625 -249.265625 L 189.625 -205.8125 L 74.359375 -205.8125 L 74.359375 -146.421875 L 180.984375 -146.421875 L 180.984375 -102.96875 L 74.359375 -102.96875 L 74.359375 -43.453125 L 190.109375 -43.453125 L 190.109375 0 Z M 21.671875 0 "/></g></g></g><g fill="#ca0013" fill-opacity="1"><g transform="translate(558.386322, 329.370962)"><g><path d="M 64.625 0 L 8.15625 0 L 94.203125 -249.265625 L 162.109375 -249.265625 L 248.046875 0 L 191.578125 0 L 173.078125 -56.84375 L 83.125 -56.84375 Z M 96.515625 -97.96875 L 159.796875 -97.96875 L 129.140625 -192.296875 L 127.1875 -192.296875 Z M 96.515625 -97.96875 "/></g></g></g><g fill="#ca0013" fill-opacity="1"><g transform="translate(774.264339, 329.370962)"><g><path d="M 110.03125 0 L 21.671875 0 L 21.671875 -249.265625 L 110.75 -249.265625 C 135.820312 -249.265625 157.425781 -244.289062 175.5625 -234.34375 C 193.695312 -224.40625 207.632812 -210.144531 217.375 -191.5625 C 227.113281 -172.988281 231.984375 -150.757812 231.984375 -124.875 C 231.984375 -98.90625 227.09375 -76.585938 217.3125 -57.921875 C 207.53125 -39.265625 193.53125 -24.945312 175.3125 -14.96875 C 157.101562 -4.988281 135.34375 0 110.03125 0 Z M 74.359375 -45.15625 L 107.828125 -45.15625 C 131.285156 -45.15625 149.078125 -51.484375 161.203125 -64.140625 C 173.335938 -76.796875 179.40625 -97.039062 179.40625 -124.875 C 179.40625 -152.539062 173.335938 -172.660156 161.203125 -185.234375 C 149.078125 -197.816406 131.328125 -204.109375 107.953125 -204.109375 L 74.359375 -204.109375 Z M 74.359375 -45.15625 "/></g></g></g><g fill="#ca0013" fill-opacity="1"><g transform="translate(0.77408, 589.652096)"><g><path d="M 156.890625 -177.578125 C 155.910156 -187.390625 151.707031 -195.015625 144.28125 -200.453125 C 136.863281 -205.890625 126.863281 -208.609375 114.28125 -208.609375 C 101.382812 -208.609375 91.488281 -205.96875 84.59375 -200.6875 C 77.695312 -195.414062 74.25 -188.765625 74.25 -180.734375 C 74.082031 -171.804688 77.910156 -165.050781 85.734375 -160.46875 C 93.566406 -155.882812 102.878906 -152.335938 113.671875 -149.828125 L 136.078125 -144.46875 C 150.515625 -141.21875 163.351562 -136.507812 174.59375 -130.34375 C 185.832031 -124.175781 194.675781 -116.242188 201.125 -106.546875 C 207.570312 -96.859375 210.796875 -85.078125 210.796875 -71.203125 C 210.710938 -48.398438 202.171875 -30.242188 185.171875 -16.734375 C 168.179688 -3.222656 144.472656 3.53125 114.046875 3.53125 C 83.773438 3.53125 59.632812 -3.363281 41.625 -17.15625 C 23.613281 -30.957031 14.28125 -51.328125 13.625 -78.265625 L 64.625 -78.265625 C 65.519531 -65.765625 70.445312 -56.367188 79.40625 -50.078125 C 88.375 -43.796875 99.71875 -40.65625 113.4375 -40.65625 C 126.820312 -40.65625 137.507812 -43.492188 145.5 -49.171875 C 153.5 -54.847656 157.535156 -62.234375 157.609375 -71.328125 C 157.535156 -79.765625 153.84375 -86.253906 146.53125 -90.796875 C 139.226562 -95.335938 128.804688 -99.234375 115.265625 -102.484375 L 88.125 -109.296875 C 67.101562 -114.328125 50.503906 -122.316406 38.328125 -133.265625 C 26.160156 -144.222656 20.117188 -158.867188 20.203125 -177.203125 C 20.117188 -192.296875 24.15625 -205.5 32.3125 -216.8125 C 40.46875 -228.132812 51.6875 -236.941406 65.96875 -243.234375 C 80.25 -249.523438 96.476562 -252.671875 114.65625 -252.671875 C 133.15625 -252.671875 149.320312 -249.503906 163.15625 -243.171875 C 176.988281 -236.847656 187.757812 -228.046875 195.46875 -216.765625 C 203.175781 -205.484375 207.148438 -192.421875 207.390625 -177.578125 Z M 156.890625 -177.578125 "/></g></g></g><g fill="#ca0013" fill-opacity="1"><g transform="translate(184.764141, 589.652096)"><g><path d="M 74.359375 -249.265625 L 74.359375 0 L 21.671875 0 L 21.671875 -249.265625 Z M 74.359375 -249.265625 "/></g></g></g><g fill="#ca0013" fill-opacity="1"><g transform="translate(240.471826, 589.652096)"><g><path d="M 21.671875 0 L 21.671875 -249.265625 L 74.359375 -249.265625 L 74.359375 -43.453125 L 181.21875 -43.453125 L 181.21875 0 Z M 21.671875 0 "/></g></g></g><g fill="#ca0013" fill-opacity="1"><g transform="translate(394.521193, 589.652096)"><g><path d="M 21.671875 0 L 21.671875 -249.265625 L 189.625 -249.265625 L 189.625 -205.8125 L 74.359375 -205.8125 L 74.359375 -146.421875 L 180.984375 -146.421875 L 180.984375 -102.96875 L 74.359375 -102.96875 L 74.359375 -43.453125 L 190.109375 -43.453125 L 190.109375 0 Z M 21.671875 0 "/></g></g></g><g fill="#ca0013" fill-opacity="1"><g transform="translate(564.027769, 589.652096)"><g><path d="M 230.15625 -249.265625 L 230.15625 0 L 184.640625 0 L 76.1875 -156.890625 L 74.359375 -156.890625 L 74.359375 0 L 21.671875 0 L 21.671875 -249.265625 L 67.90625 -249.265625 L 175.5 -92.5 L 177.703125 -92.5 L 177.703125 -249.265625 Z M 230.15625 -249.265625 "/></g></g></g><g fill="#ca0013" fill-opacity="1"><g transform="translate(775.524279, 589.652096)"><g><path d="M 241.59375 -162 L 188.28125 -162 C 186.25 -175.707031 180.40625 -186.472656 170.75 -194.296875 C 161.101562 -202.128906 149.054688 -206.046875 134.609375 -206.046875 C 115.296875 -206.046875 99.816406 -198.96875 88.171875 -184.8125 C 76.535156 -170.65625 70.71875 -150.59375 70.71875 -124.625 C 70.71875 -98.007812 76.578125 -77.785156 88.296875 -63.953125 C 100.023438 -50.117188 115.34375 -43.203125 134.25 -43.203125 C 148.28125 -43.203125 160.164062 -46.875 169.90625 -54.21875 C 179.644531 -61.5625 185.769531 -71.890625 188.28125 -85.203125 L 241.59375 -84.953125 C 239.726562 -69.703125 234.289062 -55.34375 225.28125 -41.875 C 216.28125 -28.40625 204.050781 -17.488281 188.59375 -9.125 C 173.132812 -0.769531 154.734375 3.40625 133.390625 3.40625 C 111.160156 3.40625 91.300781 -1.625 73.8125 -11.6875 C 56.332031 -21.75 42.539062 -36.3125 32.4375 -55.375 C 22.332031 -74.445312 17.28125 -97.53125 17.28125 -124.625 C 17.28125 -151.8125 22.390625 -174.9375 32.609375 -194 C 42.835938 -213.070312 56.710938 -227.617188 74.234375 -237.640625 C 91.765625 -247.660156 111.484375 -252.671875 133.390625 -252.671875 C 152.617188 -252.671875 169.960938 -249.117188 185.421875 -242.015625 C 200.878906 -234.921875 213.535156 -224.617188 223.390625 -211.109375 C 233.253906 -197.597656 239.320312 -181.226562 241.59375 -162 Z M 241.59375 -162 "/></g></g></g><g fill="#ca0013" fill-opacity="1"><g transform="translate(992.862868, 589.652096)"><g><path d="M 21.671875 0 L 21.671875 -249.265625 L 189.625 -249.265625 L 189.625 -205.8125 L 74.359375 -205.8125 L 74.359375 -146.421875 L 180.984375 -146.421875 L 180.984375 -102.96875 L 74.359375 -102.96875 L 74.359375 -43.453125 L 190.109375 -43.453125 L 190.109375 0 Z M 21.671875 0 "/></g></g></g></g></g></g></g></g></svg>