<svg xmlns="http://www.w3.org/2000/svg" xmlns:xlink="http://www.w3.org/1999/xlink" width="309" zoomAndPan="magnify" viewBox="0 0 231.75 132.749998" height="177" preserveAspectRatio="xMidYMid meet" version="1.0"><defs><g/><clipPath id="1e17a5b494"><path d="M 0.09375 0 L 231.40625 0 L 231.40625 131.976562 L 0.09375 131.976562 Z M 0.09375 0 " clip-rule="nonzero"/></clipPath><clipPath id="9d0f0cf154"><path d="M 3.085938 0 L 228.214844 0 C 229.871094 0 231.210938 1.339844 231.210938 2.996094 L 231.210938 128.980469 C 231.210938 130.632812 229.871094 131.976562 228.214844 131.976562 L 3.085938 131.976562 C 1.433594 131.976562 0.09375 130.632812 0.09375 128.980469 L 0.09375 2.996094 C 0.09375 1.339844 1.433594 0 3.085938 0 Z M 3.085938 0 " clip-rule="nonzero"/></clipPath><clipPath id="415c74f5ff"><path d="M 0.09375 0 L 231.257812 0 L 231.257812 131.976562 L 0.09375 131.976562 Z M 0.09375 0 " clip-rule="nonzero"/></clipPath><clipPath id="e6f12bde02"><path d="M 3.085938 0 L 228.214844 0 C 229.871094 0 231.210938 1.339844 231.210938 2.996094 L 231.210938 128.980469 C 231.210938 130.632812 229.871094 131.976562 228.214844 131.976562 L 3.085938 131.976562 C 1.433594 131.976562 0.09375 130.632812 0.09375 128.980469 L 0.09375 2.996094 C 0.09375 1.339844 1.433594 0 3.085938 0 Z M 3.085938 0 " clip-rule="nonzero"/></clipPath><clipPath id="94140b96ff"><rect x="0" width="232" y="0" height="132"/></clipPath><clipPath id="75cede3cb4"><rect x="0" width="182" y="0" height="38"/></clipPath></defs><g clip-path="url(#1e17a5b494)"><g clip-path="url(#9d0f0cf154)"><g transform="matrix(1, 0, 0, 1, 0.000000000000000014, -0.000000000000006455)"><g clip-path="url(#94140b96ff)"><g clip-path="url(#415c74f5ff)"><g clip-path="url(#e6f12bde02)"><path fill="#ffffff" d="M 0.09375 0 L 231.050781 0 L 231.050781 131.976562 L 0.09375 131.976562 Z M 0.09375 0 " fill-opacity="1" fill-rule="nonzero"/></g></g></g></g></g></g><g transform="matrix(1, 0, 0, 1, 28, 45)"><g clip-path="url(#75cede3cb4)"><g fill="#000000" fill-opacity="1"><g transform="translate(119.749623, 14.066302)"><g><path d="M 2.796875 0 L 1 0 L 1 -10.796875 L 5.453125 -10.796875 C 6.128906 -10.796875 6.722656 -10.679688 7.234375 -10.453125 C 7.742188 -10.234375 8.140625 -9.890625 8.421875 -9.421875 C 8.710938 -8.960938 8.859375 -8.367188 8.859375 -7.640625 C 8.859375 -6.960938 8.71875 -6.378906 8.4375 -5.890625 C 8.15625 -5.410156 7.753906 -5.039062 7.234375 -4.78125 C 6.722656 -4.519531 6.128906 -4.390625 5.453125 -4.390625 L 2.796875 -4.390625 Z M 2.796875 -9.171875 L 2.796875 -5.96875 L 5.21875 -5.96875 C 5.832031 -5.96875 6.296875 -6.101562 6.609375 -6.375 C 6.929688 -6.65625 7.09375 -7.054688 7.09375 -7.578125 C 7.09375 -8.097656 6.929688 -8.492188 6.609375 -8.765625 C 6.285156 -9.035156 5.820312 -9.171875 5.21875 -9.171875 Z M 2.796875 -9.171875 "/></g></g></g><g fill="#000000" fill-opacity="1"><g transform="translate(128.759795, 14.066302)"><g><path d="M 4.5625 0.15625 C 3.78125 0.15625 3.085938 -0.015625 2.484375 -0.359375 C 1.890625 -0.710938 1.425781 -1.195312 1.09375 -1.8125 C 0.757812 -2.4375 0.59375 -3.160156 0.59375 -3.984375 C 0.59375 -4.773438 0.757812 -5.476562 1.09375 -6.09375 C 1.425781 -6.707031 1.890625 -7.1875 2.484375 -7.53125 C 3.085938 -7.875 3.78125 -8.046875 4.5625 -8.046875 C 5.34375 -8.046875 6.03125 -7.875 6.625 -7.53125 C 7.226562 -7.1875 7.703125 -6.707031 8.046875 -6.09375 C 8.390625 -5.476562 8.5625 -4.773438 8.5625 -3.984375 C 8.5625 -3.171875 8.390625 -2.453125 8.046875 -1.828125 C 7.710938 -1.210938 7.242188 -0.726562 6.640625 -0.375 C 6.046875 -0.0195312 5.351562 0.15625 4.5625 0.15625 Z M 4.5625 -1.296875 C 5.007812 -1.296875 5.40625 -1.410156 5.75 -1.640625 C 6.09375 -1.878906 6.359375 -2.195312 6.546875 -2.59375 C 6.742188 -3 6.84375 -3.460938 6.84375 -3.984375 C 6.84375 -4.484375 6.742188 -4.929688 6.546875 -5.328125 C 6.359375 -5.722656 6.09375 -6.035156 5.75 -6.265625 C 5.40625 -6.492188 5.007812 -6.609375 4.5625 -6.609375 C 4.125 -6.609375 3.734375 -6.492188 3.390625 -6.265625 C 3.046875 -6.046875 2.773438 -5.738281 2.578125 -5.34375 C 2.390625 -4.945312 2.296875 -4.492188 2.296875 -3.984375 C 2.296875 -3.460938 2.394531 -3 2.59375 -2.59375 C 2.789062 -2.1875 3.0625 -1.867188 3.40625 -1.640625 C 3.75 -1.410156 4.132812 -1.296875 4.5625 -1.296875 Z M 4.5625 -1.296875 "/></g></g></g><g fill="#000000" fill-opacity="1"><g transform="translate(137.911477, 14.066302)"><g><path d="M 3.765625 0 L 2.734375 0 C 2.148438 0 1.691406 -0.132812 1.359375 -0.40625 C 1.035156 -0.675781 0.875 -1.148438 0.875 -1.828125 L 0.875 -10.796875 L 2.546875 -10.796875 L 2.546875 -2.265625 C 2.546875 -1.972656 2.597656 -1.753906 2.703125 -1.609375 C 2.804688 -1.472656 3.003906 -1.40625 3.296875 -1.40625 L 3.765625 -1.40625 Z M 3.765625 0 "/></g></g></g><g fill="#000000" fill-opacity="1"><g transform="translate(142.055897, 14.066302)"><g><path d="M 2.265625 2.890625 L 0.984375 2.890625 L 0.984375 1.453125 L 1.828125 1.453125 C 2.097656 1.453125 2.3125 1.410156 2.46875 1.328125 C 2.625 1.253906 2.765625 1.054688 2.890625 0.734375 L 3.171875 -0.03125 L 0.203125 -7.90625 L 2.015625 -7.90625 L 4.046875 -1.984375 L 5.875 -7.90625 L 7.6875 -7.90625 L 4.46875 1.140625 C 4.226562 1.804688 3.945312 2.265625 3.625 2.515625 C 3.300781 2.765625 2.847656 2.890625 2.265625 2.890625 Z M 2.265625 2.890625 "/></g></g></g><g fill="#000000" fill-opacity="1"><g transform="translate(149.976984, 14.066302)"><g><path d="M 4.5 3.046875 C 3.957031 3.046875 3.429688 2.972656 2.921875 2.828125 C 2.410156 2.679688 1.96875 2.421875 1.59375 2.046875 C 1.226562 1.679688 0.988281 1.164062 0.875 0.5 L 2.5625 0.5 C 2.6875 0.90625 2.90625 1.207031 3.21875 1.40625 C 3.53125 1.601562 3.953125 1.703125 4.484375 1.703125 C 5.191406 1.703125 5.695312 1.535156 6 1.203125 C 6.3125 0.878906 6.46875 0.457031 6.46875 -0.0625 L 6.46875 -1.1875 C 6.125 -0.71875 5.765625 -0.394531 5.390625 -0.21875 C 5.023438 -0.0390625 4.601562 0.046875 4.125 0.046875 C 3.425781 0.046875 2.816406 -0.125 2.296875 -0.46875 C 1.773438 -0.8125 1.367188 -1.285156 1.078125 -1.890625 C 0.785156 -2.503906 0.640625 -3.203125 0.640625 -3.984375 C 0.640625 -4.773438 0.785156 -5.476562 1.078125 -6.09375 C 1.367188 -6.707031 1.773438 -7.1875 2.296875 -7.53125 C 2.816406 -7.875 3.421875 -8.046875 4.109375 -8.046875 C 4.609375 -8.046875 5.039062 -7.957031 5.40625 -7.78125 C 5.769531 -7.613281 6.125 -7.296875 6.46875 -6.828125 L 6.46875 -7.90625 L 8.140625 -7.90625 L 8.140625 -0.4375 C 8.140625 0.457031 7.976562 1.15625 7.65625 1.65625 C 7.34375 2.164062 6.910156 2.523438 6.359375 2.734375 C 5.816406 2.941406 5.195312 3.046875 4.5 3.046875 Z M 4.453125 -1.40625 C 4.890625 -1.40625 5.269531 -1.515625 5.59375 -1.734375 C 5.925781 -1.960938 6.179688 -2.269531 6.359375 -2.65625 C 6.546875 -3.050781 6.640625 -3.5 6.640625 -4 C 6.640625 -4.5 6.546875 -4.941406 6.359375 -5.328125 C 6.171875 -5.722656 5.914062 -6.035156 5.59375 -6.265625 C 5.269531 -6.492188 4.890625 -6.609375 4.453125 -6.609375 C 4.015625 -6.609375 3.632812 -6.488281 3.3125 -6.25 C 3 -6.019531 2.753906 -5.707031 2.578125 -5.3125 C 2.398438 -4.925781 2.3125 -4.488281 2.3125 -4 C 2.3125 -3.507812 2.398438 -3.066406 2.578125 -2.671875 C 2.753906 -2.285156 3 -1.976562 3.3125 -1.75 C 3.632812 -1.519531 4.015625 -1.40625 4.453125 -1.40625 Z M 4.453125 -1.40625 "/></g></g></g><g fill="#000000" fill-opacity="1"><g transform="translate(159.043797, 14.066302)"><g><path d="M 3.765625 0 L 2.734375 0 C 2.148438 0 1.691406 -0.132812 1.359375 -0.40625 C 1.035156 -0.675781 0.875 -1.148438 0.875 -1.828125 L 0.875 -10.796875 L 2.546875 -10.796875 L 2.546875 -2.265625 C 2.546875 -1.972656 2.597656 -1.753906 2.703125 -1.609375 C 2.804688 -1.472656 3.003906 -1.40625 3.296875 -1.40625 L 3.765625 -1.40625 Z M 3.765625 0 "/></g></g></g><g fill="#000000" fill-opacity="1"><g transform="translate(162.905265, 14.066302)"><g><path d="M 4.5625 0.15625 C 3.78125 0.15625 3.085938 -0.015625 2.484375 -0.359375 C 1.890625 -0.710938 1.425781 -1.195312 1.09375 -1.8125 C 0.757812 -2.4375 0.59375 -3.160156 0.59375 -3.984375 C 0.59375 -4.773438 0.757812 -5.476562 1.09375 -6.09375 C 1.425781 -6.707031 1.890625 -7.1875 2.484375 -7.53125 C 3.085938 -7.875 3.78125 -8.046875 4.5625 -8.046875 C 5.34375 -8.046875 6.03125 -7.875 6.625 -7.53125 C 7.226562 -7.1875 7.703125 -6.707031 8.046875 -6.09375 C 8.390625 -5.476562 8.5625 -4.773438 8.5625 -3.984375 C 8.5625 -3.171875 8.390625 -2.453125 8.046875 -1.828125 C 7.710938 -1.210938 7.242188 -0.726562 6.640625 -0.375 C 6.046875 -0.0195312 5.351562 0.15625 4.5625 0.15625 Z M 4.5625 -1.296875 C 5.007812 -1.296875 5.40625 -1.410156 5.75 -1.640625 C 6.09375 -1.878906 6.359375 -2.195312 6.546875 -2.59375 C 6.742188 -3 6.84375 -3.460938 6.84375 -3.984375 C 6.84375 -4.484375 6.742188 -4.929688 6.546875 -5.328125 C 6.359375 -5.722656 6.09375 -6.035156 5.75 -6.265625 C 5.40625 -6.492188 5.007812 -6.609375 4.5625 -6.609375 C 4.125 -6.609375 3.734375 -6.492188 3.390625 -6.265625 C 3.046875 -6.046875 2.773438 -5.738281 2.578125 -5.34375 C 2.390625 -4.945312 2.296875 -4.492188 2.296875 -3.984375 C 2.296875 -3.460938 2.394531 -3 2.59375 -2.59375 C 2.789062 -2.1875 3.0625 -1.867188 3.40625 -1.640625 C 3.75 -1.410156 4.132812 -1.296875 4.5625 -1.296875 Z M 4.5625 -1.296875 "/></g></g></g><g fill="#000000" fill-opacity="1"><g transform="translate(171.92962, 14.066302)"><g><path d="M 4.8125 0 L 3.390625 0 C 2.804688 0 2.351562 -0.132812 2.03125 -0.40625 C 1.707031 -0.675781 1.546875 -1.148438 1.546875 -1.828125 L 1.546875 -6.515625 L 0.359375 -6.515625 L 0.359375 -7.90625 L 1.546875 -7.90625 L 1.546875 -10.796875 L 3.203125 -10.796875 L 3.203125 -7.90625 L 4.828125 -7.90625 L 4.828125 -6.515625 L 3.203125 -6.515625 L 3.203125 -2.296875 C 3.203125 -2.035156 3.242188 -1.820312 3.328125 -1.65625 C 3.410156 -1.488281 3.625 -1.40625 3.96875 -1.40625 L 4.8125 -1.40625 Z M 4.8125 0 "/></g></g></g><g fill="#000000" fill-opacity="1"><g transform="translate(177.252795, 14.066302)"><g/></g></g><g fill="#000000" fill-opacity="1"><g transform="translate(1.81718, 33.778967)"><g><path d="M 7.09375 -4.703125 L 9.09375 0 L 7.15625 0 L 5.375 -4.390625 L 2.796875 -4.390625 L 2.796875 0 L 1 0 L 1 -10.796875 L 5.453125 -10.796875 C 6.128906 -10.796875 6.722656 -10.679688 7.234375 -10.453125 C 7.742188 -10.234375 8.140625 -9.890625 8.421875 -9.421875 C 8.710938 -8.960938 8.859375 -8.367188 8.859375 -7.640625 C 8.859375 -6.921875 8.703125 -6.3125 8.390625 -5.8125 C 8.085938 -5.320312 7.65625 -4.953125 7.09375 -4.703125 Z M 2.796875 -9.171875 L 2.796875 -5.96875 L 5.21875 -5.96875 C 5.832031 -5.96875 6.296875 -6.101562 6.609375 -6.375 C 6.929688 -6.65625 7.09375 -7.054688 7.09375 -7.578125 C 7.09375 -8.097656 6.929688 -8.492188 6.609375 -8.765625 C 6.285156 -9.035156 5.820312 -9.171875 5.21875 -9.171875 Z M 2.796875 -9.171875 "/></g></g></g><g fill="#000000" fill-opacity="1"><g transform="translate(11.209276, 33.778967)"><g><path d="M 4.546875 0.15625 C 3.742188 0.15625 3.046875 -0.0195312 2.453125 -0.375 C 1.867188 -0.726562 1.410156 -1.210938 1.078125 -1.828125 C 0.753906 -2.441406 0.59375 -3.140625 0.59375 -3.921875 C 0.59375 -4.429688 0.675781 -4.929688 0.84375 -5.421875 C 1.007812 -5.921875 1.253906 -6.367188 1.578125 -6.765625 C 1.898438 -7.160156 2.300781 -7.472656 2.78125 -7.703125 C 3.269531 -7.929688 3.84375 -8.046875 4.5 -8.046875 C 5.175781 -8.046875 5.8125 -7.898438 6.40625 -7.609375 C 7.007812 -7.328125 7.492188 -6.890625 7.859375 -6.296875 C 8.234375 -5.703125 8.421875 -4.945312 8.421875 -4.03125 L 8.421875 -3.609375 L 2.296875 -3.609375 C 2.304688 -3.453125 2.332031 -3.296875 2.375 -3.140625 C 2.425781 -2.984375 2.488281 -2.847656 2.5625 -2.734375 C 2.75 -2.285156 3.019531 -1.929688 3.375 -1.671875 C 3.726562 -1.421875 4.128906 -1.296875 4.578125 -1.296875 C 5.078125 -1.296875 5.492188 -1.425781 5.828125 -1.6875 C 6.171875 -1.957031 6.414062 -2.265625 6.5625 -2.609375 L 8.28125 -2.609375 C 8.132812 -2.109375 7.894531 -1.644531 7.5625 -1.21875 C 7.238281 -0.800781 6.828125 -0.46875 6.328125 -0.21875 C 5.828125 0.03125 5.234375 0.15625 4.546875 0.15625 Z M 2.390625 -4.921875 L 6.6875 -4.921875 C 6.675781 -5.035156 6.648438 -5.15625 6.609375 -5.28125 C 6.566406 -5.414062 6.507812 -5.546875 6.4375 -5.671875 C 6.25 -6.003906 5.984375 -6.253906 5.640625 -6.421875 C 5.304688 -6.597656 4.941406 -6.6875 4.546875 -6.6875 C 3.703125 -6.6875 3.078125 -6.347656 2.671875 -5.671875 C 2.585938 -5.546875 2.523438 -5.414062 2.484375 -5.28125 C 2.441406 -5.144531 2.410156 -5.023438 2.390625 -4.921875 Z M 2.390625 -4.921875 "/></g></g></g><g fill="#000000" fill-opacity="1"><g transform="translate(20.219505, 33.778967)"><g><path d="M 4.53125 0.15625 C 3.75 0.15625 3.0625 -0.015625 2.46875 -0.359375 C 1.875 -0.710938 1.410156 -1.195312 1.078125 -1.8125 C 0.753906 -2.4375 0.59375 -3.160156 0.59375 -3.984375 C 0.59375 -4.773438 0.753906 -5.476562 1.078125 -6.09375 C 1.410156 -6.707031 1.867188 -7.1875 2.453125 -7.53125 C 3.046875 -7.875 3.738281 -8.046875 4.53125 -8.046875 C 5.457031 -8.046875 6.242188 -7.804688 6.890625 -7.328125 C 7.546875 -6.859375 7.960938 -6.222656 8.140625 -5.421875 L 6.328125 -5.421875 C 6.203125 -5.816406 5.976562 -6.117188 5.65625 -6.328125 C 5.34375 -6.546875 4.96875 -6.65625 4.53125 -6.65625 C 3.863281 -6.65625 3.320312 -6.410156 2.90625 -5.921875 C 2.5 -5.429688 2.296875 -4.785156 2.296875 -3.984375 C 2.296875 -3.160156 2.5 -2.5 2.90625 -2 C 3.320312 -1.5 3.863281 -1.25 4.53125 -1.25 C 5.019531 -1.25 5.421875 -1.375 5.734375 -1.625 C 6.054688 -1.875 6.269531 -2.203125 6.375 -2.609375 L 8.1875 -2.609375 C 8.007812 -1.742188 7.585938 -1.066406 6.921875 -0.578125 C 6.253906 -0.0859375 5.457031 0.15625 4.53125 0.15625 Z M 4.53125 0.15625 "/></g></g></g><g fill="#000000" fill-opacity="1"><g transform="translate(28.904406, 33.778967)"><g><path d="M 4.5625 0.15625 C 3.78125 0.15625 3.085938 -0.015625 2.484375 -0.359375 C 1.890625 -0.710938 1.425781 -1.195312 1.09375 -1.8125 C 0.757812 -2.4375 0.59375 -3.160156 0.59375 -3.984375 C 0.59375 -4.773438 0.757812 -5.476562 1.09375 -6.09375 C 1.425781 -6.707031 1.890625 -7.1875 2.484375 -7.53125 C 3.085938 -7.875 3.78125 -8.046875 4.5625 -8.046875 C 5.34375 -8.046875 6.03125 -7.875 6.625 -7.53125 C 7.226562 -7.1875 7.703125 -6.707031 8.046875 -6.09375 C 8.390625 -5.476562 8.5625 -4.773438 8.5625 -3.984375 C 8.5625 -3.171875 8.390625 -2.453125 8.046875 -1.828125 C 7.710938 -1.210938 7.242188 -0.726562 6.640625 -0.375 C 6.046875 -0.0195312 5.351562 0.15625 4.5625 0.15625 Z M 4.5625 -1.296875 C 5.007812 -1.296875 5.40625 -1.410156 5.75 -1.640625 C 6.09375 -1.878906 6.359375 -2.195312 6.546875 -2.59375 C 6.742188 -3 6.84375 -3.460938 6.84375 -3.984375 C 6.84375 -4.484375 6.742188 -4.929688 6.546875 -5.328125 C 6.359375 -5.722656 6.09375 -6.035156 5.75 -6.265625 C 5.40625 -6.492188 5.007812 -6.609375 4.5625 -6.609375 C 4.125 -6.609375 3.734375 -6.492188 3.390625 -6.265625 C 3.046875 -6.046875 2.773438 -5.738281 2.578125 -5.34375 C 2.390625 -4.945312 2.296875 -4.492188 2.296875 -3.984375 C 2.296875 -3.460938 2.394531 -3 2.59375 -2.59375 C 2.789062 -2.1875 3.0625 -1.867188 3.40625 -1.640625 C 3.75 -1.410156 4.132812 -1.296875 4.5625 -1.296875 Z M 4.5625 -1.296875 "/></g></g></g><g fill="#000000" fill-opacity="1"><g transform="translate(38.056089, 33.778967)"><g><path d="M 2.59375 0 L 0.921875 0 L 0.921875 -7.90625 L 2.59375 -7.90625 L 2.59375 -6.828125 C 2.925781 -7.285156 3.273438 -7.601562 3.640625 -7.78125 C 4.003906 -7.957031 4.390625 -8.046875 4.796875 -8.046875 C 5.316406 -8.046875 5.765625 -7.929688 6.140625 -7.703125 C 6.523438 -7.484375 6.785156 -7.15625 6.921875 -6.71875 C 7.179688 -7.207031 7.515625 -7.550781 7.921875 -7.75 C 8.328125 -7.945312 8.78125 -8.046875 9.28125 -8.046875 C 10.175781 -8.046875 10.832031 -7.789062 11.25 -7.28125 C 11.675781 -6.769531 11.890625 -6.066406 11.890625 -5.171875 L 11.890625 0 L 10.21875 0 L 10.21875 -4.921875 C 10.21875 -5.503906 10.097656 -5.9375 9.859375 -6.21875 C 9.617188 -6.5 9.285156 -6.640625 8.859375 -6.640625 C 8.398438 -6.640625 8.046875 -6.5 7.796875 -6.21875 C 7.585938 -5.988281 7.441406 -5.6875 7.359375 -5.3125 C 7.273438 -4.945312 7.234375 -4.5 7.234375 -3.96875 L 7.234375 0 L 5.578125 0 L 5.578125 -4.921875 C 5.578125 -5.492188 5.453125 -5.921875 5.203125 -6.203125 C 4.960938 -6.492188 4.625 -6.640625 4.1875 -6.640625 C 3.726562 -6.640625 3.378906 -6.488281 3.140625 -6.1875 C 2.960938 -5.976562 2.828125 -5.703125 2.734375 -5.359375 C 2.640625 -5.023438 2.59375 -4.5625 2.59375 -3.96875 Z M 2.59375 0 "/></g></g></g><g fill="#000000" fill-opacity="1"><g transform="translate(50.800539, 33.778967)"><g><path d="M 2.59375 0 L 0.921875 0 L 0.921875 -7.90625 L 2.59375 -7.90625 L 2.59375 -6.828125 C 2.925781 -7.285156 3.273438 -7.601562 3.640625 -7.78125 C 4.003906 -7.957031 4.390625 -8.046875 4.796875 -8.046875 C 5.316406 -8.046875 5.765625 -7.929688 6.140625 -7.703125 C 6.523438 -7.484375 6.785156 -7.15625 6.921875 -6.71875 C 7.179688 -7.207031 7.515625 -7.550781 7.921875 -7.75 C 8.328125 -7.945312 8.78125 -8.046875 9.28125 -8.046875 C 10.175781 -8.046875 10.832031 -7.789062 11.25 -7.28125 C 11.675781 -6.769531 11.890625 -6.066406 11.890625 -5.171875 L 11.890625 0 L 10.21875 0 L 10.21875 -4.921875 C 10.21875 -5.503906 10.097656 -5.9375 9.859375 -6.21875 C 9.617188 -6.5 9.285156 -6.640625 8.859375 -6.640625 C 8.398438 -6.640625 8.046875 -6.5 7.796875 -6.21875 C 7.585938 -5.988281 7.441406 -5.6875 7.359375 -5.3125 C 7.273438 -4.945312 7.234375 -4.5 7.234375 -3.96875 L 7.234375 0 L 5.578125 0 L 5.578125 -4.921875 C 5.578125 -5.492188 5.453125 -5.921875 5.203125 -6.203125 C 4.960938 -6.492188 4.625 -6.640625 4.1875 -6.640625 C 3.726562 -6.640625 3.378906 -6.488281 3.140625 -6.1875 C 2.960938 -5.976562 2.828125 -5.703125 2.734375 -5.359375 C 2.640625 -5.023438 2.59375 -4.5625 2.59375 -3.96875 Z M 2.59375 0 "/></g></g></g><g fill="#000000" fill-opacity="1"><g transform="translate(63.54499, 33.778967)"><g><path d="M 4.546875 0.15625 C 3.742188 0.15625 3.046875 -0.0195312 2.453125 -0.375 C 1.867188 -0.726562 1.410156 -1.210938 1.078125 -1.828125 C 0.753906 -2.441406 0.59375 -3.140625 0.59375 -3.921875 C 0.59375 -4.429688 0.675781 -4.929688 0.84375 -5.421875 C 1.007812 -5.921875 1.253906 -6.367188 1.578125 -6.765625 C 1.898438 -7.160156 2.300781 -7.472656 2.78125 -7.703125 C 3.269531 -7.929688 3.84375 -8.046875 4.5 -8.046875 C 5.175781 -8.046875 5.8125 -7.898438 6.40625 -7.609375 C 7.007812 -7.328125 7.492188 -6.890625 7.859375 -6.296875 C 8.234375 -5.703125 8.421875 -4.945312 8.421875 -4.03125 L 8.421875 -3.609375 L 2.296875 -3.609375 C 2.304688 -3.453125 2.332031 -3.296875 2.375 -3.140625 C 2.425781 -2.984375 2.488281 -2.847656 2.5625 -2.734375 C 2.75 -2.285156 3.019531 -1.929688 3.375 -1.671875 C 3.726562 -1.421875 4.128906 -1.296875 4.578125 -1.296875 C 5.078125 -1.296875 5.492188 -1.425781 5.828125 -1.6875 C 6.171875 -1.957031 6.414062 -2.265625 6.5625 -2.609375 L 8.28125 -2.609375 C 8.132812 -2.109375 7.894531 -1.644531 7.5625 -1.21875 C 7.238281 -0.800781 6.828125 -0.46875 6.328125 -0.21875 C 5.828125 0.03125 5.234375 0.15625 4.546875 0.15625 Z M 2.390625 -4.921875 L 6.6875 -4.921875 C 6.675781 -5.035156 6.648438 -5.15625 6.609375 -5.28125 C 6.566406 -5.414062 6.507812 -5.546875 6.4375 -5.671875 C 6.25 -6.003906 5.984375 -6.253906 5.640625 -6.421875 C 5.304688 -6.597656 4.941406 -6.6875 4.546875 -6.6875 C 3.703125 -6.6875 3.078125 -6.347656 2.671875 -5.671875 C 2.585938 -5.546875 2.523438 -5.414062 2.484375 -5.28125 C 2.441406 -5.144531 2.410156 -5.023438 2.390625 -4.921875 Z M 2.390625 -4.921875 "/></g></g></g><g fill="#000000" fill-opacity="1"><g transform="translate(72.55522, 33.778967)"><g><path d="M 2.59375 0 L 0.921875 0 L 0.921875 -7.90625 L 2.59375 -7.90625 L 2.59375 -6.828125 C 2.9375 -7.296875 3.28125 -7.613281 3.625 -7.78125 C 3.976562 -7.957031 4.367188 -8.046875 4.796875 -8.046875 C 5.484375 -8.046875 6.007812 -7.921875 6.375 -7.671875 C 6.75 -7.421875 7.03125 -7.117188 7.21875 -6.765625 C 7.394531 -6.410156 7.492188 -6.050781 7.515625 -5.6875 C 7.546875 -5.320312 7.5625 -4.96875 7.5625 -4.625 L 7.5625 0 L 5.875 0 L 5.875 -4.625 C 5.875 -5.425781 5.742188 -5.972656 5.484375 -6.265625 C 5.253906 -6.515625 4.894531 -6.640625 4.40625 -6.640625 C 3.832031 -6.640625 3.40625 -6.472656 3.125 -6.140625 C 2.9375 -5.929688 2.800781 -5.644531 2.71875 -5.28125 C 2.632812 -4.914062 2.59375 -4.421875 2.59375 -3.796875 Z M 2.59375 0 "/></g></g></g><g fill="#000000" fill-opacity="1"><g transform="translate(80.971363, 33.778967)"><g><path d="M 4.09375 0.15625 C 3.40625 0.15625 2.800781 -0.015625 2.28125 -0.359375 C 1.757812 -0.710938 1.351562 -1.195312 1.0625 -1.8125 C 0.769531 -2.4375 0.625 -3.144531 0.625 -3.9375 C 0.625 -4.75 0.769531 -5.460938 1.0625 -6.078125 C 1.351562 -6.691406 1.757812 -7.171875 2.28125 -7.515625 C 2.800781 -7.867188 3.40625 -8.046875 4.09375 -8.046875 C 4.582031 -8.046875 5.007812 -7.957031 5.375 -7.78125 C 5.75 -7.613281 6.113281 -7.296875 6.46875 -6.828125 L 6.46875 -10.796875 L 8.125 -10.796875 L 8.125 0 L 6.46875 0 L 6.46875 -1.078125 C 6.113281 -0.609375 5.753906 -0.285156 5.390625 -0.109375 C 5.023438 0.0664062 4.59375 0.15625 4.09375 0.15625 Z M 4.4375 -1.28125 C 4.875 -1.28125 5.253906 -1.394531 5.578125 -1.625 C 5.898438 -1.851562 6.15625 -2.164062 6.34375 -2.5625 C 6.53125 -2.96875 6.625 -3.425781 6.625 -3.9375 C 6.625 -4.457031 6.53125 -4.914062 6.34375 -5.3125 C 6.15625 -5.71875 5.898438 -6.035156 5.578125 -6.265625 C 5.253906 -6.492188 4.875 -6.609375 4.4375 -6.609375 C 4.007812 -6.609375 3.632812 -6.488281 3.3125 -6.25 C 2.988281 -6.019531 2.738281 -5.703125 2.5625 -5.296875 C 2.394531 -4.898438 2.3125 -4.445312 2.3125 -3.9375 C 2.3125 -3.4375 2.394531 -2.984375 2.5625 -2.578125 C 2.738281 -2.179688 2.988281 -1.863281 3.3125 -1.625 C 3.632812 -1.394531 4.007812 -1.28125 4.4375 -1.28125 Z M 4.4375 -1.28125 "/></g></g></g><g fill="#000000" fill-opacity="1"><g transform="translate(90.024027, 33.778967)"><g><path d="M 3.171875 0.15625 C 2.410156 0.15625 1.789062 -0.0390625 1.3125 -0.4375 C 0.832031 -0.84375 0.59375 -1.414062 0.59375 -2.15625 C 0.59375 -2.539062 0.671875 -2.875 0.828125 -3.15625 C 0.984375 -3.445312 1.191406 -3.691406 1.453125 -3.890625 C 1.703125 -4.066406 1.976562 -4.207031 2.28125 -4.3125 C 2.59375 -4.425781 2.929688 -4.515625 3.296875 -4.578125 L 5.796875 -5.046875 C 5.785156 -5.578125 5.644531 -5.984375 5.375 -6.265625 C 5.082031 -6.554688 4.6875 -6.703125 4.1875 -6.703125 C 3.789062 -6.703125 3.4375 -6.585938 3.125 -6.359375 C 2.820312 -6.140625 2.632812 -5.828125 2.5625 -5.421875 L 0.890625 -5.421875 C 0.984375 -6.015625 1.191406 -6.503906 1.515625 -6.890625 C 1.847656 -7.273438 2.25 -7.5625 2.71875 -7.75 C 3.195312 -7.945312 3.691406 -8.046875 4.203125 -8.046875 C 4.660156 -8.046875 5.097656 -7.984375 5.515625 -7.859375 C 5.929688 -7.734375 6.285156 -7.53125 6.578125 -7.25 C 6.867188 -6.976562 7.070312 -6.671875 7.1875 -6.328125 C 7.3125 -5.984375 7.382812 -5.628906 7.40625 -5.265625 C 7.4375 -4.910156 7.453125 -4.582031 7.453125 -4.28125 L 7.453125 0 L 5.78125 0 L 5.78125 -1.125 C 5.570312 -0.769531 5.304688 -0.488281 4.984375 -0.28125 C 4.742188 -0.125 4.46875 -0.015625 4.15625 0.046875 C 3.851562 0.117188 3.523438 0.15625 3.171875 0.15625 Z M 3.53125 -1.203125 C 3.914062 -1.203125 4.28125 -1.28125 4.625 -1.4375 C 5.09375 -1.675781 5.40625 -1.984375 5.5625 -2.359375 C 5.726562 -2.742188 5.8125 -3.222656 5.8125 -3.796875 L 3.703125 -3.375 C 3.160156 -3.257812 2.773438 -3.101562 2.546875 -2.90625 C 2.359375 -2.707031 2.265625 -2.46875 2.265625 -2.1875 C 2.265625 -1.875 2.378906 -1.628906 2.609375 -1.453125 C 2.847656 -1.285156 3.15625 -1.203125 3.53125 -1.203125 Z M 3.53125 -1.203125 "/></g></g></g><g fill="#000000" fill-opacity="1"><g transform="translate(98.312878, 33.778967)"><g><path d="M 4.8125 0 L 3.390625 0 C 2.804688 0 2.351562 -0.132812 2.03125 -0.40625 C 1.707031 -0.675781 1.546875 -1.148438 1.546875 -1.828125 L 1.546875 -6.515625 L 0.359375 -6.515625 L 0.359375 -7.90625 L 1.546875 -7.90625 L 1.546875 -10.796875 L 3.203125 -10.796875 L 3.203125 -7.90625 L 4.828125 -7.90625 L 4.828125 -6.515625 L 3.203125 -6.515625 L 3.203125 -2.296875 C 3.203125 -2.035156 3.242188 -1.820312 3.328125 -1.65625 C 3.410156 -1.488281 3.625 -1.40625 3.96875 -1.40625 L 4.8125 -1.40625 Z M 4.8125 0 "/></g></g></g><g fill="#000000" fill-opacity="1"><g transform="translate(103.631322, 33.778967)"><g><path d="M 1.75 -8.921875 C 1.457031 -8.921875 1.203125 -9.015625 0.984375 -9.203125 C 0.773438 -9.398438 0.671875 -9.644531 0.671875 -9.9375 C 0.671875 -10.238281 0.773438 -10.484375 0.984375 -10.671875 C 1.203125 -10.859375 1.457031 -10.953125 1.75 -10.953125 C 2.050781 -10.953125 2.304688 -10.859375 2.515625 -10.671875 C 2.734375 -10.484375 2.84375 -10.238281 2.84375 -9.9375 C 2.84375 -9.644531 2.734375 -9.398438 2.515625 -9.203125 C 2.304688 -9.015625 2.050781 -8.921875 1.75 -8.921875 Z M 2.59375 0 L 0.921875 0 L 0.921875 -7.90625 L 2.59375 -7.90625 Z M 2.59375 0 "/></g></g></g><g fill="#000000" fill-opacity="1"><g transform="translate(107.125083, 33.778967)"><g><path d="M 4.5625 0.15625 C 3.78125 0.15625 3.085938 -0.015625 2.484375 -0.359375 C 1.890625 -0.710938 1.425781 -1.195312 1.09375 -1.8125 C 0.757812 -2.4375 0.59375 -3.160156 0.59375 -3.984375 C 0.59375 -4.773438 0.757812 -5.476562 1.09375 -6.09375 C 1.425781 -6.707031 1.890625 -7.1875 2.484375 -7.53125 C 3.085938 -7.875 3.78125 -8.046875 4.5625 -8.046875 C 5.34375 -8.046875 6.03125 -7.875 6.625 -7.53125 C 7.226562 -7.1875 7.703125 -6.707031 8.046875 -6.09375 C 8.390625 -5.476562 8.5625 -4.773438 8.5625 -3.984375 C 8.5625 -3.171875 8.390625 -2.453125 8.046875 -1.828125 C 7.710938 -1.210938 7.242188 -0.726562 6.640625 -0.375 C 6.046875 -0.0195312 5.351562 0.15625 4.5625 0.15625 Z M 4.5625 -1.296875 C 5.007812 -1.296875 5.40625 -1.410156 5.75 -1.640625 C 6.09375 -1.878906 6.359375 -2.195312 6.546875 -2.59375 C 6.742188 -3 6.84375 -3.460938 6.84375 -3.984375 C 6.84375 -4.484375 6.742188 -4.929688 6.546875 -5.328125 C 6.359375 -5.722656 6.09375 -6.035156 5.75 -6.265625 C 5.40625 -6.492188 5.007812 -6.609375 4.5625 -6.609375 C 4.125 -6.609375 3.734375 -6.492188 3.390625 -6.265625 C 3.046875 -6.046875 2.773438 -5.738281 2.578125 -5.34375 C 2.390625 -4.945312 2.296875 -4.492188 2.296875 -3.984375 C 2.296875 -3.460938 2.394531 -3 2.59375 -2.59375 C 2.789062 -2.1875 3.0625 -1.867188 3.40625 -1.640625 C 3.75 -1.410156 4.132812 -1.296875 4.5625 -1.296875 Z M 4.5625 -1.296875 "/></g></g></g><g fill="#000000" fill-opacity="1"><g transform="translate(116.276766, 33.778967)"><g><path d="M 2.59375 0 L 0.921875 0 L 0.921875 -7.90625 L 2.59375 -7.90625 L 2.59375 -6.828125 C 2.9375 -7.296875 3.28125 -7.613281 3.625 -7.78125 C 3.976562 -7.957031 4.367188 -8.046875 4.796875 -8.046875 C 5.484375 -8.046875 6.007812 -7.921875 6.375 -7.671875 C 6.75 -7.421875 7.03125 -7.117188 7.21875 -6.765625 C 7.394531 -6.410156 7.492188 -6.050781 7.515625 -5.6875 C 7.546875 -5.320312 7.5625 -4.96875 7.5625 -4.625 L 7.5625 0 L 5.875 0 L 5.875 -4.625 C 5.875 -5.425781 5.742188 -5.972656 5.484375 -6.265625 C 5.253906 -6.515625 4.894531 -6.640625 4.40625 -6.640625 C 3.832031 -6.640625 3.40625 -6.472656 3.125 -6.140625 C 2.9375 -5.929688 2.800781 -5.644531 2.71875 -5.28125 C 2.632812 -4.914062 2.59375 -4.421875 2.59375 -3.796875 Z M 2.59375 0 "/></g></g></g><g fill="#000000" fill-opacity="1"><g transform="translate(124.692909, 33.778967)"><g/></g></g><g fill="#000000" fill-opacity="1"><g transform="translate(128.540297, 33.778967)"><g><path d="M 5.15625 0.1875 C 4.644531 0.1875 4.128906 0.125 3.609375 0 C 3.085938 -0.132812 2.609375 -0.34375 2.171875 -0.625 C 1.742188 -0.90625 1.382812 -1.273438 1.09375 -1.734375 C 0.800781 -2.203125 0.613281 -2.765625 0.53125 -3.421875 L 2.359375 -3.421875 C 2.484375 -2.890625 2.691406 -2.472656 2.984375 -2.171875 C 3.273438 -1.867188 3.613281 -1.65625 4 -1.53125 C 4.394531 -1.414062 4.789062 -1.359375 5.1875 -1.359375 C 5.820312 -1.359375 6.335938 -1.488281 6.734375 -1.75 C 7.128906 -2.019531 7.328125 -2.429688 7.328125 -2.984375 C 7.328125 -3.410156 7.195312 -3.738281 6.9375 -3.96875 C 6.675781 -4.195312 6.335938 -4.375 5.921875 -4.5 C 5.503906 -4.625 5.054688 -4.738281 4.578125 -4.84375 C 4.148438 -4.9375 3.71875 -5.039062 3.28125 -5.15625 C 2.84375 -5.28125 2.445312 -5.445312 2.09375 -5.65625 C 1.738281 -5.875 1.453125 -6.15625 1.234375 -6.5 C 1.015625 -6.851562 0.90625 -7.304688 0.90625 -7.859375 C 0.90625 -8.523438 1.066406 -9.085938 1.390625 -9.546875 C 1.710938 -10.003906 2.15625 -10.351562 2.71875 -10.59375 C 3.28125 -10.832031 3.914062 -10.953125 4.625 -10.953125 C 5.289062 -10.953125 5.921875 -10.835938 6.515625 -10.609375 C 7.109375 -10.378906 7.613281 -10.019531 8.03125 -9.53125 C 8.445312 -9.050781 8.710938 -8.429688 8.828125 -7.671875 L 7.03125 -7.671875 C 6.875 -8.285156 6.570312 -8.726562 6.125 -9 C 5.675781 -9.28125 5.164062 -9.421875 4.59375 -9.421875 C 4.019531 -9.421875 3.5625 -9.296875 3.21875 -9.046875 C 2.875 -8.804688 2.703125 -8.460938 2.703125 -8.015625 C 2.703125 -7.648438 2.820312 -7.363281 3.0625 -7.15625 C 3.300781 -6.945312 3.613281 -6.785156 4 -6.671875 C 4.382812 -6.554688 4.804688 -6.445312 5.265625 -6.34375 C 5.710938 -6.25 6.160156 -6.132812 6.609375 -6 C 7.066406 -5.875 7.484375 -5.695312 7.859375 -5.46875 C 8.234375 -5.25 8.535156 -4.945312 8.765625 -4.5625 C 9.003906 -4.1875 9.125 -3.695312 9.125 -3.09375 C 9.125 -2.09375 8.78125 -1.296875 8.09375 -0.703125 C 7.40625 -0.109375 6.425781 0.1875 5.15625 0.1875 Z M 5.15625 0.1875 "/></g></g></g><g fill="#000000" fill-opacity="1"><g transform="translate(138.286055, 33.778967)"><g><path d="M 2.265625 2.890625 L 0.984375 2.890625 L 0.984375 1.453125 L 1.828125 1.453125 C 2.097656 1.453125 2.3125 1.410156 2.46875 1.328125 C 2.625 1.253906 2.765625 1.054688 2.890625 0.734375 L 3.171875 -0.03125 L 0.203125 -7.90625 L 2.015625 -7.90625 L 4.046875 -1.984375 L 5.875 -7.90625 L 7.6875 -7.90625 L 4.46875 1.140625 C 4.226562 1.804688 3.945312 2.265625 3.625 2.515625 C 3.300781 2.765625 2.847656 2.890625 2.265625 2.890625 Z M 2.265625 2.890625 "/></g></g></g><g fill="#000000" fill-opacity="1"><g transform="translate(146.207142, 33.778967)"><g><path d="M 4.234375 0.15625 C 3.617188 0.15625 3.046875 0.0546875 2.515625 -0.140625 C 1.984375 -0.347656 1.539062 -0.65625 1.1875 -1.0625 C 0.84375 -1.46875 0.617188 -1.984375 0.515625 -2.609375 L 2.203125 -2.609375 C 2.316406 -2.171875 2.546875 -1.828125 2.890625 -1.578125 C 3.242188 -1.328125 3.691406 -1.203125 4.234375 -1.203125 C 4.679688 -1.203125 5.046875 -1.285156 5.328125 -1.453125 C 5.617188 -1.628906 5.765625 -1.878906 5.765625 -2.203125 C 5.765625 -2.472656 5.671875 -2.679688 5.484375 -2.828125 C 5.304688 -2.972656 5.066406 -3.09375 4.765625 -3.1875 C 4.460938 -3.28125 4.140625 -3.359375 3.796875 -3.421875 C 3.453125 -3.484375 3.109375 -3.5625 2.765625 -3.65625 C 2.421875 -3.75 2.101562 -3.875 1.8125 -4.03125 C 1.519531 -4.1875 1.285156 -4.398438 1.109375 -4.671875 C 0.929688 -4.941406 0.84375 -5.296875 0.84375 -5.734375 C 0.84375 -6.253906 0.976562 -6.6875 1.25 -7.03125 C 1.53125 -7.375 1.898438 -7.628906 2.359375 -7.796875 C 2.816406 -7.960938 3.3125 -8.046875 3.84375 -8.046875 C 4.738281 -8.046875 5.488281 -7.816406 6.09375 -7.359375 C 6.707031 -6.898438 7.082031 -6.257812 7.21875 -5.4375 L 5.65625 -5.4375 C 5.53125 -5.875 5.304688 -6.191406 4.984375 -6.390625 C 4.660156 -6.597656 4.28125 -6.703125 3.84375 -6.703125 C 3.414062 -6.703125 3.078125 -6.617188 2.828125 -6.453125 C 2.585938 -6.296875 2.46875 -6.082031 2.46875 -5.8125 C 2.46875 -5.570312 2.554688 -5.382812 2.734375 -5.25 C 2.921875 -5.113281 3.15625 -5.007812 3.4375 -4.9375 C 3.726562 -4.863281 4.046875 -4.789062 4.390625 -4.71875 C 4.734375 -4.65625 5.082031 -4.578125 5.4375 -4.484375 C 5.800781 -4.398438 6.128906 -4.273438 6.421875 -4.109375 C 6.722656 -3.941406 6.960938 -3.71875 7.140625 -3.4375 C 7.328125 -3.164062 7.421875 -2.800781 7.421875 -2.34375 C 7.421875 -1.601562 7.140625 -1 6.578125 -0.53125 C 6.023438 -0.0703125 5.242188 0.15625 4.234375 0.15625 Z M 4.234375 0.15625 "/></g></g></g><g fill="#000000" fill-opacity="1"><g transform="translate(154.198927, 33.778967)"><g><path d="M 4.8125 0 L 3.390625 0 C 2.804688 0 2.351562 -0.132812 2.03125 -0.40625 C 1.707031 -0.675781 1.546875 -1.148438 1.546875 -1.828125 L 1.546875 -6.515625 L 0.359375 -6.515625 L 0.359375 -7.90625 L 1.546875 -7.90625 L 1.546875 -10.796875 L 3.203125 -10.796875 L 3.203125 -7.90625 L 4.828125 -7.90625 L 4.828125 -6.515625 L 3.203125 -6.515625 L 3.203125 -2.296875 C 3.203125 -2.035156 3.242188 -1.820312 3.328125 -1.65625 C 3.410156 -1.488281 3.625 -1.40625 3.96875 -1.40625 L 4.8125 -1.40625 Z M 4.8125 0 "/></g></g></g><g fill="#000000" fill-opacity="1"><g transform="translate(159.347596, 33.778967)"><g><path d="M 4.546875 0.15625 C 3.742188 0.15625 3.046875 -0.0195312 2.453125 -0.375 C 1.867188 -0.726562 1.410156 -1.210938 1.078125 -1.828125 C 0.753906 -2.441406 0.59375 -3.140625 0.59375 -3.921875 C 0.59375 -4.429688 0.675781 -4.929688 0.84375 -5.421875 C 1.007812 -5.921875 1.253906 -6.367188 1.578125 -6.765625 C 1.898438 -7.160156 2.300781 -7.472656 2.78125 -7.703125 C 3.269531 -7.929688 3.84375 -8.046875 4.5 -8.046875 C 5.175781 -8.046875 5.8125 -7.898438 6.40625 -7.609375 C 7.007812 -7.328125 7.492188 -6.890625 7.859375 -6.296875 C 8.234375 -5.703125 8.421875 -4.945312 8.421875 -4.03125 L 8.421875 -3.609375 L 2.296875 -3.609375 C 2.304688 -3.453125 2.332031 -3.296875 2.375 -3.140625 C 2.425781 -2.984375 2.488281 -2.847656 2.5625 -2.734375 C 2.75 -2.285156 3.019531 -1.929688 3.375 -1.671875 C 3.726562 -1.421875 4.128906 -1.296875 4.578125 -1.296875 C 5.078125 -1.296875 5.492188 -1.425781 5.828125 -1.6875 C 6.171875 -1.957031 6.414062 -2.265625 6.5625 -2.609375 L 8.28125 -2.609375 C 8.132812 -2.109375 7.894531 -1.644531 7.5625 -1.21875 C 7.238281 -0.800781 6.828125 -0.46875 6.328125 -0.21875 C 5.828125 0.03125 5.234375 0.15625 4.546875 0.15625 Z M 2.390625 -4.921875 L 6.6875 -4.921875 C 6.675781 -5.035156 6.648438 -5.15625 6.609375 -5.28125 C 6.566406 -5.414062 6.507812 -5.546875 6.4375 -5.671875 C 6.25 -6.003906 5.984375 -6.253906 5.640625 -6.421875 C 5.304688 -6.597656 4.941406 -6.6875 4.546875 -6.6875 C 3.703125 -6.6875 3.078125 -6.347656 2.671875 -5.671875 C 2.585938 -5.546875 2.523438 -5.414062 2.484375 -5.28125 C 2.441406 -5.144531 2.410156 -5.023438 2.390625 -4.921875 Z M 2.390625 -4.921875 "/></g></g></g><g fill="#000000" fill-opacity="1"><g transform="translate(168.357826, 33.778967)"><g><path d="M 2.59375 0 L 0.921875 0 L 0.921875 -7.90625 L 2.59375 -7.90625 L 2.59375 -6.828125 C 2.925781 -7.285156 3.273438 -7.601562 3.640625 -7.78125 C 4.003906 -7.957031 4.390625 -8.046875 4.796875 -8.046875 C 5.316406 -8.046875 5.765625 -7.929688 6.140625 -7.703125 C 6.523438 -7.484375 6.785156 -7.15625 6.921875 -6.71875 C 7.179688 -7.207031 7.515625 -7.550781 7.921875 -7.75 C 8.328125 -7.945312 8.78125 -8.046875 9.28125 -8.046875 C 10.175781 -8.046875 10.832031 -7.789062 11.25 -7.28125 C 11.675781 -6.769531 11.890625 -6.066406 11.890625 -5.171875 L 11.890625 0 L 10.21875 0 L 10.21875 -4.921875 C 10.21875 -5.503906 10.097656 -5.9375 9.859375 -6.21875 C 9.617188 -6.5 9.285156 -6.640625 8.859375 -6.640625 C 8.398438 -6.640625 8.046875 -6.5 7.796875 -6.21875 C 7.585938 -5.988281 7.441406 -5.6875 7.359375 -5.3125 C 7.273438 -4.945312 7.234375 -4.5 7.234375 -3.96875 L 7.234375 0 L 5.578125 0 L 5.578125 -4.921875 C 5.578125 -5.492188 5.453125 -5.921875 5.203125 -6.203125 C 4.960938 -6.492188 4.625 -6.640625 4.1875 -6.640625 C 3.726562 -6.640625 3.378906 -6.488281 3.140625 -6.1875 C 2.960938 -5.976562 2.828125 -5.703125 2.734375 -5.359375 C 2.640625 -5.023438 2.59375 -4.5625 2.59375 -3.96875 Z M 2.59375 0 "/></g></g></g></g></g></svg>