<svg xmlns="http://www.w3.org/2000/svg" xmlns:xlink="http://www.w3.org/1999/xlink" width="306" zoomAndPan="magnify" viewBox="0 0 229.5 122.249994" height="163" preserveAspectRatio="xMidYMid meet" version="1.0"><defs><g/><clipPath id="f018165fa5"><path d="M 5.992188 0 L 228.550781 0 L 228.550781 121.484375 L 5.992188 121.484375 Z M 5.992188 0 " clip-rule="nonzero"/></clipPath><clipPath id="f6baf8ca0d"><path d="M 8.976562 0 L 225.292969 0 C 226.085938 0 226.84375 0.3125 227.402344 0.875 C 227.960938 1.433594 228.273438 2.191406 228.273438 2.980469 L 228.273438 118.503906 C 228.273438 119.292969 227.960938 120.054688 227.402344 120.613281 C 226.84375 121.171875 226.085938 121.484375 225.292969 121.484375 L 8.976562 121.484375 C 8.183594 121.484375 7.425781 121.171875 6.867188 120.613281 C 6.308594 120.054688 5.992188 119.292969 5.992188 118.503906 L 5.992188 2.980469 C 5.992188 2.191406 6.308594 1.433594 6.867188 0.875 C 7.425781 0.3125 8.183594 0 8.976562 0 Z M 8.976562 0 " clip-rule="nonzero"/></clipPath><clipPath id="ed5a2af024"><path d="M 0.992188 0 L 223.492188 0 L 223.492188 121.484375 L 0.992188 121.484375 Z M 0.992188 0 " clip-rule="nonzero"/></clipPath><clipPath id="9fbed9e746"><path d="M 3.976562 0 L 220.292969 0 C 221.085938 0 221.84375 0.3125 222.402344 0.875 C 222.960938 1.433594 223.273438 2.191406 223.273438 2.980469 L 223.273438 118.503906 C 223.273438 119.292969 222.960938 120.054688 222.402344 120.613281 C 221.84375 121.171875 221.085938 121.484375 220.292969 121.484375 L 3.976562 121.484375 C 3.183594 121.484375 2.425781 121.171875 1.867188 120.613281 C 1.308594 120.054688 0.992188 119.292969 0.992188 118.503906 L 0.992188 2.980469 C 0.992188 2.191406 1.308594 1.433594 1.867188 0.875 C 2.425781 0.3125 3.183594 0 3.976562 0 Z M 3.976562 0 " clip-rule="nonzero"/></clipPath><clipPath id="bc1ca7e972"><rect x="0" width="224" y="0" height="122"/></clipPath></defs><g clip-path="url(#f018165fa5)"><g clip-path="url(#f6baf8ca0d)"><g transform="matrix(1, 0, 0, 1, 5, -0.000000000000001057)"><g clip-path="url(#bc1ca7e972)"><g clip-path="url(#ed5a2af024)"><g clip-path="url(#9fbed9e746)"><path fill="#ffffff" d="M 0.992188 0 L 223.085938 0 L 223.085938 121.484375 L 0.992188 121.484375 Z M 0.992188 0 " fill-opacity="1" fill-rule="nonzero"/></g></g></g></g></g></g><g fill="#000000" fill-opacity="1"><g transform="translate(153.90295, 61.816386)"><g><path d="M 2.953125 0 L 1.0625 0 L 1.0625 -11.375 L 5.75 -11.375 C 6.46875 -11.375 7.09375 -11.253906 7.625 -11.015625 C 8.164062 -10.785156 8.585938 -10.425781 8.890625 -9.9375 C 9.191406 -9.457031 9.34375 -8.828125 9.34375 -8.046875 C 9.34375 -7.328125 9.191406 -6.710938 8.890625 -6.203125 C 8.597656 -5.703125 8.179688 -5.316406 7.640625 -5.046875 C 7.097656 -4.773438 6.46875 -4.640625 5.75 -4.640625 L 2.953125 -4.640625 Z M 2.953125 -9.671875 L 2.953125 -6.296875 L 5.5 -6.296875 C 6.144531 -6.296875 6.632812 -6.441406 6.96875 -6.734375 C 7.3125 -7.023438 7.484375 -7.441406 7.484375 -7.984375 C 7.484375 -8.535156 7.3125 -8.953125 6.96875 -9.234375 C 6.625 -9.523438 6.132812 -9.671875 5.5 -9.671875 Z M 2.953125 -9.671875 "/></g></g></g><g fill="#000000" fill-opacity="1"><g transform="translate(163.399679, 61.816386)"><g><path d="M 4.8125 0.15625 C 3.988281 0.15625 3.257812 -0.0234375 2.625 -0.390625 C 2 -0.753906 1.507812 -1.265625 1.15625 -1.921875 C 0.800781 -2.578125 0.625 -3.335938 0.625 -4.203125 C 0.625 -5.035156 0.800781 -5.773438 1.15625 -6.421875 C 1.507812 -7.066406 2 -7.570312 2.625 -7.9375 C 3.257812 -8.300781 3.988281 -8.484375 4.8125 -8.484375 C 5.632812 -8.484375 6.359375 -8.300781 6.984375 -7.9375 C 7.617188 -7.570312 8.113281 -7.066406 8.46875 -6.421875 C 8.832031 -5.773438 9.015625 -5.035156 9.015625 -4.203125 C 9.015625 -3.347656 8.835938 -2.59375 8.484375 -1.9375 C 8.128906 -1.28125 7.632812 -0.765625 7 -0.390625 C 6.375 -0.0234375 5.644531 0.15625 4.8125 0.15625 Z M 4.8125 -1.375 C 5.28125 -1.375 5.695312 -1.492188 6.0625 -1.734375 C 6.425781 -1.984375 6.707031 -2.320312 6.90625 -2.75 C 7.113281 -3.175781 7.21875 -3.660156 7.21875 -4.203125 C 7.21875 -4.734375 7.113281 -5.207031 6.90625 -5.625 C 6.707031 -6.039062 6.425781 -6.367188 6.0625 -6.609375 C 5.695312 -6.847656 5.28125 -6.96875 4.8125 -6.96875 C 4.34375 -6.96875 3.925781 -6.847656 3.5625 -6.609375 C 3.207031 -6.378906 2.925781 -6.054688 2.71875 -5.640625 C 2.519531 -5.222656 2.421875 -4.742188 2.421875 -4.203125 C 2.421875 -3.648438 2.523438 -3.160156 2.734375 -2.734375 C 2.941406 -2.304688 3.222656 -1.972656 3.578125 -1.734375 C 3.941406 -1.492188 4.351562 -1.375 4.8125 -1.375 Z M 4.8125 -1.375 "/></g></g></g><g fill="#000000" fill-opacity="1"><g transform="translate(173.045492, 61.816386)"><g><path d="M 3.96875 0 L 2.875 0 C 2.257812 0 1.78125 -0.140625 1.4375 -0.421875 C 1.09375 -0.703125 0.921875 -1.203125 0.921875 -1.921875 L 0.921875 -11.375 L 2.6875 -11.375 L 2.6875 -2.390625 C 2.6875 -2.078125 2.738281 -1.84375 2.84375 -1.6875 C 2.957031 -1.539062 3.164062 -1.46875 3.46875 -1.46875 L 3.96875 -1.46875 Z M 3.96875 0 "/></g></g></g><g fill="#000000" fill-opacity="1"><g transform="translate(177.413693, 61.816386)"><g><path d="M 2.390625 3.046875 L 1.046875 3.046875 L 1.046875 1.53125 L 1.921875 1.53125 C 2.210938 1.53125 2.4375 1.488281 2.59375 1.40625 C 2.757812 1.320312 2.910156 1.113281 3.046875 0.78125 L 3.34375 -0.03125 L 0.203125 -8.328125 L 2.109375 -8.328125 L 4.265625 -2.09375 L 6.203125 -8.328125 L 8.109375 -8.328125 L 4.703125 1.203125 C 4.460938 1.898438 4.171875 2.378906 3.828125 2.640625 C 3.484375 2.910156 3.003906 3.046875 2.390625 3.046875 Z M 2.390625 3.046875 "/></g></g></g><g fill="#000000" fill-opacity="1"><g transform="translate(185.762471, 61.816386)"><g><path d="M 4.734375 3.203125 C 4.171875 3.203125 3.617188 3.125 3.078125 2.96875 C 2.535156 2.820312 2.070312 2.550781 1.6875 2.15625 C 1.300781 1.769531 1.046875 1.222656 0.921875 0.515625 L 2.703125 0.515625 C 2.835938 0.953125 3.066406 1.269531 3.390625 1.46875 C 3.722656 1.675781 4.164062 1.78125 4.71875 1.78125 C 5.46875 1.78125 6.003906 1.609375 6.328125 1.265625 C 6.660156 0.929688 6.828125 0.488281 6.828125 -0.0625 L 6.828125 -1.25 C 6.460938 -0.75 6.082031 -0.40625 5.6875 -0.21875 C 5.300781 -0.0390625 4.859375 0.046875 4.359375 0.046875 C 3.617188 0.046875 2.972656 -0.132812 2.421875 -0.5 C 1.867188 -0.863281 1.4375 -1.363281 1.125 -2 C 0.820312 -2.644531 0.671875 -3.378906 0.671875 -4.203125 C 0.671875 -5.035156 0.820312 -5.773438 1.125 -6.421875 C 1.4375 -7.066406 1.867188 -7.570312 2.421875 -7.9375 C 2.972656 -8.300781 3.613281 -8.484375 4.34375 -8.484375 C 4.863281 -8.484375 5.316406 -8.390625 5.703125 -8.203125 C 6.085938 -8.023438 6.460938 -7.691406 6.828125 -7.203125 L 6.828125 -8.328125 L 8.59375 -8.328125 L 8.59375 -0.46875 C 8.59375 0.476562 8.421875 1.21875 8.078125 1.75 C 7.742188 2.28125 7.285156 2.65625 6.703125 2.875 C 6.128906 3.09375 5.472656 3.203125 4.734375 3.203125 Z M 4.703125 -1.46875 C 5.148438 -1.46875 5.546875 -1.585938 5.890625 -1.828125 C 6.242188 -2.066406 6.515625 -2.390625 6.703125 -2.796875 C 6.898438 -3.210938 7 -3.6875 7 -4.21875 C 7 -4.75 6.898438 -5.21875 6.703125 -5.625 C 6.503906 -6.039062 6.234375 -6.367188 5.890625 -6.609375 C 5.546875 -6.847656 5.148438 -6.96875 4.703125 -6.96875 C 4.242188 -6.96875 3.84375 -6.84375 3.5 -6.59375 C 3.164062 -6.351562 2.90625 -6.023438 2.71875 -5.609375 C 2.53125 -5.203125 2.4375 -4.738281 2.4375 -4.21875 C 2.4375 -3.695312 2.53125 -3.226562 2.71875 -2.8125 C 2.90625 -2.40625 3.164062 -2.078125 3.5 -1.828125 C 3.84375 -1.585938 4.242188 -1.46875 4.703125 -1.46875 Z M 4.703125 -1.46875 "/></g></g></g><g fill="#000000" fill-opacity="1"><g transform="translate(195.318836, 61.816386)"><g><path d="M 3.96875 0 L 2.875 0 C 2.257812 0 1.78125 -0.140625 1.4375 -0.421875 C 1.09375 -0.703125 0.921875 -1.203125 0.921875 -1.921875 L 0.921875 -11.375 L 2.6875 -11.375 L 2.6875 -2.390625 C 2.6875 -2.078125 2.738281 -1.84375 2.84375 -1.6875 C 2.957031 -1.539062 3.164062 -1.46875 3.46875 -1.46875 L 3.96875 -1.46875 Z M 3.96875 0 "/></g></g></g><g fill="#000000" fill-opacity="1"><g transform="translate(199.388871, 61.816386)"><g><path d="M 4.8125 0.15625 C 3.988281 0.15625 3.257812 -0.0234375 2.625 -0.390625 C 2 -0.753906 1.507812 -1.265625 1.15625 -1.921875 C 0.800781 -2.578125 0.625 -3.335938 0.625 -4.203125 C 0.625 -5.035156 0.800781 -5.773438 1.15625 -6.421875 C 1.507812 -7.066406 2 -7.570312 2.625 -7.9375 C 3.257812 -8.300781 3.988281 -8.484375 4.8125 -8.484375 C 5.632812 -8.484375 6.359375 -8.300781 6.984375 -7.9375 C 7.617188 -7.570312 8.113281 -7.066406 8.46875 -6.421875 C 8.832031 -5.773438 9.015625 -5.035156 9.015625 -4.203125 C 9.015625 -3.347656 8.835938 -2.59375 8.484375 -1.9375 C 8.128906 -1.28125 7.632812 -0.765625 7 -0.390625 C 6.375 -0.0234375 5.644531 0.15625 4.8125 0.15625 Z M 4.8125 -1.375 C 5.28125 -1.375 5.695312 -1.492188 6.0625 -1.734375 C 6.425781 -1.984375 6.707031 -2.320312 6.90625 -2.75 C 7.113281 -3.175781 7.21875 -3.660156 7.21875 -4.203125 C 7.21875 -4.734375 7.113281 -5.207031 6.90625 -5.625 C 6.707031 -6.039062 6.425781 -6.367188 6.0625 -6.609375 C 5.695312 -6.847656 5.28125 -6.96875 4.8125 -6.96875 C 4.34375 -6.96875 3.925781 -6.847656 3.5625 -6.609375 C 3.207031 -6.378906 2.925781 -6.054688 2.71875 -5.640625 C 2.519531 -5.222656 2.421875 -4.742188 2.421875 -4.203125 C 2.421875 -3.648438 2.523438 -3.160156 2.734375 -2.734375 C 2.941406 -2.304688 3.222656 -1.972656 3.578125 -1.734375 C 3.941406 -1.492188 4.351562 -1.375 4.8125 -1.375 Z M 4.8125 -1.375 "/></g></g></g><g fill="#000000" fill-opacity="1"><g transform="translate(208.900513, 61.816386)"><g><path d="M 5.0625 0 L 3.578125 0 C 2.960938 0 2.484375 -0.140625 2.140625 -0.421875 C 1.796875 -0.703125 1.625 -1.203125 1.625 -1.921875 L 1.625 -6.875 L 0.375 -6.875 L 0.375 -8.328125 L 1.625 -8.328125 L 1.625 -11.375 L 3.390625 -11.375 L 3.390625 -8.328125 L 5.078125 -8.328125 L 5.078125 -6.875 L 3.390625 -6.875 L 3.390625 -2.421875 C 3.390625 -2.148438 3.429688 -1.921875 3.515625 -1.734375 C 3.597656 -1.554688 3.820312 -1.46875 4.1875 -1.46875 L 5.0625 -1.46875 Z M 5.0625 0 "/></g></g></g><g fill="#000000" fill-opacity="1"><g transform="translate(214.515463, 61.816386)"><g/></g></g><g fill="#000000" fill-opacity="1"><g transform="translate(29.614684, 82.688336)"><g><path d="M 7.484375 -4.96875 L 9.578125 0 L 7.546875 0 L 5.671875 -4.640625 L 2.953125 -4.640625 L 2.953125 0 L 1.0625 0 L 1.0625 -11.375 L 5.75 -11.375 C 6.46875 -11.375 7.09375 -11.253906 7.625 -11.015625 C 8.164062 -10.785156 8.585938 -10.425781 8.890625 -9.9375 C 9.191406 -9.457031 9.34375 -8.828125 9.34375 -8.046875 C 9.34375 -7.296875 9.175781 -6.65625 8.84375 -6.125 C 8.519531 -5.601562 8.066406 -5.21875 7.484375 -4.96875 Z M 2.953125 -9.671875 L 2.953125 -6.296875 L 5.5 -6.296875 C 6.144531 -6.296875 6.632812 -6.441406 6.96875 -6.734375 C 7.3125 -7.023438 7.484375 -7.441406 7.484375 -7.984375 C 7.484375 -8.535156 7.3125 -8.953125 6.96875 -9.234375 C 6.625 -9.523438 6.132812 -9.671875 5.5 -9.671875 Z M 2.953125 -9.671875 "/></g></g></g><g fill="#000000" fill-opacity="1"><g transform="translate(39.513939, 82.688336)"><g><path d="M 4.78125 0.15625 C 3.945312 0.15625 3.21875 -0.0234375 2.59375 -0.390625 C 1.976562 -0.765625 1.492188 -1.273438 1.140625 -1.921875 C 0.796875 -2.578125 0.625 -3.3125 0.625 -4.125 C 0.625 -4.675781 0.707031 -5.207031 0.875 -5.71875 C 1.050781 -6.238281 1.3125 -6.707031 1.65625 -7.125 C 2 -7.539062 2.425781 -7.867188 2.9375 -8.109375 C 3.457031 -8.359375 4.054688 -8.484375 4.734375 -8.484375 C 5.453125 -8.484375 6.125 -8.332031 6.75 -8.03125 C 7.382812 -7.726562 7.898438 -7.257812 8.296875 -6.625 C 8.691406 -6 8.890625 -5.207031 8.890625 -4.25 L 8.890625 -3.796875 L 2.421875 -3.796875 C 2.429688 -3.640625 2.460938 -3.476562 2.515625 -3.3125 C 2.566406 -3.15625 2.628906 -3.007812 2.703125 -2.875 C 2.898438 -2.40625 3.179688 -2.035156 3.546875 -1.765625 C 3.921875 -1.503906 4.347656 -1.375 4.828125 -1.375 C 5.359375 -1.375 5.800781 -1.507812 6.15625 -1.78125 C 6.507812 -2.0625 6.765625 -2.382812 6.921875 -2.75 L 8.734375 -2.75 C 8.578125 -2.226562 8.328125 -1.742188 7.984375 -1.296875 C 7.640625 -0.847656 7.203125 -0.492188 6.671875 -0.234375 C 6.148438 0.0234375 5.519531 0.15625 4.78125 0.15625 Z M 2.515625 -5.1875 L 7.046875 -5.1875 C 7.035156 -5.300781 7.007812 -5.425781 6.96875 -5.5625 C 6.925781 -5.707031 6.863281 -5.847656 6.78125 -5.984375 C 6.582031 -6.335938 6.304688 -6.601562 5.953125 -6.78125 C 5.597656 -6.957031 5.210938 -7.046875 4.796875 -7.046875 C 3.898438 -7.046875 3.238281 -6.691406 2.8125 -5.984375 C 2.726562 -5.847656 2.660156 -5.707031 2.609375 -5.5625 C 2.566406 -5.414062 2.535156 -5.289062 2.515625 -5.1875 Z M 2.515625 -5.1875 "/></g></g></g><g fill="#000000" fill-opacity="1"><g transform="translate(49.010669, 82.688336)"><g><path d="M 4.765625 0.15625 C 3.953125 0.15625 3.234375 -0.0234375 2.609375 -0.390625 C 1.984375 -0.753906 1.492188 -1.265625 1.140625 -1.921875 C 0.796875 -2.578125 0.625 -3.335938 0.625 -4.203125 C 0.625 -5.035156 0.796875 -5.773438 1.140625 -6.421875 C 1.492188 -7.066406 1.976562 -7.570312 2.59375 -7.9375 C 3.21875 -8.300781 3.941406 -8.484375 4.765625 -8.484375 C 5.753906 -8.484375 6.585938 -8.234375 7.265625 -7.734375 C 7.953125 -7.234375 8.394531 -6.554688 8.59375 -5.703125 L 6.671875 -5.703125 C 6.535156 -6.117188 6.300781 -6.441406 5.96875 -6.671875 C 5.632812 -6.898438 5.234375 -7.015625 4.765625 -7.015625 C 4.066406 -7.015625 3.5 -6.753906 3.0625 -6.234375 C 2.632812 -5.722656 2.421875 -5.046875 2.421875 -4.203125 C 2.421875 -3.328125 2.632812 -2.625 3.0625 -2.09375 C 3.5 -1.570312 4.066406 -1.3125 4.765625 -1.3125 C 5.285156 -1.3125 5.710938 -1.441406 6.046875 -1.703125 C 6.390625 -1.972656 6.613281 -2.320312 6.71875 -2.75 L 8.625 -2.75 C 8.4375 -1.84375 7.992188 -1.128906 7.296875 -0.609375 C 6.597656 -0.0976562 5.753906 0.15625 4.765625 0.15625 Z M 4.765625 0.15625 "/></g></g></g><g fill="#000000" fill-opacity="1"><g transform="translate(58.164497, 82.688336)"><g><path d="M 4.8125 0.15625 C 3.988281 0.15625 3.257812 -0.0234375 2.625 -0.390625 C 2 -0.753906 1.507812 -1.265625 1.15625 -1.921875 C 0.800781 -2.578125 0.625 -3.335938 0.625 -4.203125 C 0.625 -5.035156 0.800781 -5.773438 1.15625 -6.421875 C 1.507812 -7.066406 2 -7.570312 2.625 -7.9375 C 3.257812 -8.300781 3.988281 -8.484375 4.8125 -8.484375 C 5.632812 -8.484375 6.359375 -8.300781 6.984375 -7.9375 C 7.617188 -7.570312 8.113281 -7.066406 8.46875 -6.421875 C 8.832031 -5.773438 9.015625 -5.035156 9.015625 -4.203125 C 9.015625 -3.347656 8.835938 -2.59375 8.484375 -1.9375 C 8.128906 -1.28125 7.632812 -0.765625 7 -0.390625 C 6.375 -0.0234375 5.644531 0.15625 4.8125 0.15625 Z M 4.8125 -1.375 C 5.28125 -1.375 5.695312 -1.492188 6.0625 -1.734375 C 6.425781 -1.984375 6.707031 -2.320312 6.90625 -2.75 C 7.113281 -3.175781 7.21875 -3.660156 7.21875 -4.203125 C 7.21875 -4.734375 7.113281 -5.207031 6.90625 -5.625 C 6.707031 -6.039062 6.425781 -6.367188 6.0625 -6.609375 C 5.695312 -6.847656 5.28125 -6.96875 4.8125 -6.96875 C 4.34375 -6.96875 3.925781 -6.847656 3.5625 -6.609375 C 3.207031 -6.378906 2.925781 -6.054688 2.71875 -5.640625 C 2.519531 -5.222656 2.421875 -4.742188 2.421875 -4.203125 C 2.421875 -3.648438 2.523438 -3.160156 2.734375 -2.734375 C 2.941406 -2.304688 3.222656 -1.972656 3.578125 -1.734375 C 3.941406 -1.492188 4.351562 -1.375 4.8125 -1.375 Z M 4.8125 -1.375 "/></g></g></g><g fill="#000000" fill-opacity="1"><g transform="translate(67.81031, 82.688336)"><g><path d="M 2.734375 0 L 0.96875 0 L 0.96875 -8.328125 L 2.734375 -8.328125 L 2.734375 -7.203125 C 3.085938 -7.679688 3.453125 -8.015625 3.828125 -8.203125 C 4.210938 -8.390625 4.617188 -8.484375 5.046875 -8.484375 C 5.597656 -8.484375 6.070312 -8.363281 6.46875 -8.125 C 6.875 -7.894531 7.148438 -7.546875 7.296875 -7.078125 C 7.566406 -7.597656 7.914062 -7.960938 8.34375 -8.171875 C 8.769531 -8.378906 9.25 -8.484375 9.78125 -8.484375 C 10.71875 -8.484375 11.410156 -8.210938 11.859375 -7.671875 C 12.304688 -7.140625 12.53125 -6.398438 12.53125 -5.453125 L 12.53125 0 L 10.78125 0 L 10.78125 -5.1875 C 10.78125 -5.800781 10.648438 -6.253906 10.390625 -6.546875 C 10.140625 -6.847656 9.789062 -7 9.34375 -7 C 8.851562 -7 8.476562 -6.851562 8.21875 -6.5625 C 8 -6.3125 7.84375 -5.988281 7.75 -5.59375 C 7.664062 -5.207031 7.625 -4.738281 7.625 -4.1875 L 7.625 0 L 5.875 0 L 5.875 -5.1875 C 5.875 -5.789062 5.742188 -6.242188 5.484375 -6.546875 C 5.222656 -6.847656 4.863281 -7 4.40625 -7 C 3.9375 -7 3.570312 -6.84375 3.3125 -6.53125 C 3.125 -6.3125 2.976562 -6.019531 2.875 -5.65625 C 2.78125 -5.300781 2.734375 -4.8125 2.734375 -4.1875 Z M 2.734375 0 "/></g></g></g><g fill="#000000" fill-opacity="1"><g transform="translate(81.242892, 82.688336)"><g><path d="M 2.734375 0 L 0.96875 0 L 0.96875 -8.328125 L 2.734375 -8.328125 L 2.734375 -7.203125 C 3.085938 -7.679688 3.453125 -8.015625 3.828125 -8.203125 C 4.210938 -8.390625 4.617188 -8.484375 5.046875 -8.484375 C 5.597656 -8.484375 6.070312 -8.363281 6.46875 -8.125 C 6.875 -7.894531 7.148438 -7.546875 7.296875 -7.078125 C 7.566406 -7.597656 7.914062 -7.960938 8.34375 -8.171875 C 8.769531 -8.378906 9.25 -8.484375 9.78125 -8.484375 C 10.71875 -8.484375 11.410156 -8.210938 11.859375 -7.671875 C 12.304688 -7.140625 12.53125 -6.398438 12.53125 -5.453125 L 12.53125 0 L 10.78125 0 L 10.78125 -5.1875 C 10.78125 -5.800781 10.648438 -6.253906 10.390625 -6.546875 C 10.140625 -6.847656 9.789062 -7 9.34375 -7 C 8.851562 -7 8.476562 -6.851562 8.21875 -6.5625 C 8 -6.3125 7.84375 -5.988281 7.75 -5.59375 C 7.664062 -5.207031 7.625 -4.738281 7.625 -4.1875 L 7.625 0 L 5.875 0 L 5.875 -5.1875 C 5.875 -5.789062 5.742188 -6.242188 5.484375 -6.546875 C 5.222656 -6.847656 4.863281 -7 4.40625 -7 C 3.9375 -7 3.570312 -6.84375 3.3125 -6.53125 C 3.125 -6.3125 2.976562 -6.019531 2.875 -5.65625 C 2.78125 -5.300781 2.734375 -4.8125 2.734375 -4.1875 Z M 2.734375 0 "/></g></g></g><g fill="#000000" fill-opacity="1"><g transform="translate(94.675474, 82.688336)"><g><path d="M 4.78125 0.15625 C 3.945312 0.15625 3.21875 -0.0234375 2.59375 -0.390625 C 1.976562 -0.765625 1.492188 -1.273438 1.140625 -1.921875 C 0.796875 -2.578125 0.625 -3.3125 0.625 -4.125 C 0.625 -4.675781 0.707031 -5.207031 0.875 -5.71875 C 1.050781 -6.238281 1.3125 -6.707031 1.65625 -7.125 C 2 -7.539062 2.425781 -7.867188 2.9375 -8.109375 C 3.457031 -8.359375 4.054688 -8.484375 4.734375 -8.484375 C 5.453125 -8.484375 6.125 -8.332031 6.75 -8.03125 C 7.382812 -7.726562 7.898438 -7.257812 8.296875 -6.625 C 8.691406 -6 8.890625 -5.207031 8.890625 -4.25 L 8.890625 -3.796875 L 2.421875 -3.796875 C 2.429688 -3.640625 2.460938 -3.476562 2.515625 -3.3125 C 2.566406 -3.15625 2.628906 -3.007812 2.703125 -2.875 C 2.898438 -2.40625 3.179688 -2.035156 3.546875 -1.765625 C 3.921875 -1.503906 4.347656 -1.375 4.828125 -1.375 C 5.359375 -1.375 5.800781 -1.507812 6.15625 -1.78125 C 6.507812 -2.0625 6.765625 -2.382812 6.921875 -2.75 L 8.734375 -2.75 C 8.578125 -2.226562 8.328125 -1.742188 7.984375 -1.296875 C 7.640625 -0.847656 7.203125 -0.492188 6.671875 -0.234375 C 6.148438 0.0234375 5.519531 0.15625 4.78125 0.15625 Z M 2.515625 -5.1875 L 7.046875 -5.1875 C 7.035156 -5.300781 7.007812 -5.425781 6.96875 -5.5625 C 6.925781 -5.707031 6.863281 -5.847656 6.78125 -5.984375 C 6.582031 -6.335938 6.304688 -6.601562 5.953125 -6.78125 C 5.597656 -6.957031 5.210938 -7.046875 4.796875 -7.046875 C 3.898438 -7.046875 3.238281 -6.691406 2.8125 -5.984375 C 2.726562 -5.847656 2.660156 -5.707031 2.609375 -5.5625 C 2.566406 -5.414062 2.535156 -5.289062 2.515625 -5.1875 Z M 2.515625 -5.1875 "/></g></g></g><g fill="#000000" fill-opacity="1"><g transform="translate(104.172204, 82.688336)"><g><path d="M 2.734375 0 L 0.96875 0 L 0.96875 -8.328125 L 2.734375 -8.328125 L 2.734375 -7.203125 C 3.097656 -7.691406 3.460938 -8.023438 3.828125 -8.203125 C 4.191406 -8.390625 4.597656 -8.484375 5.046875 -8.484375 C 5.773438 -8.484375 6.332031 -8.347656 6.71875 -8.078125 C 7.113281 -7.816406 7.410156 -7.5 7.609375 -7.125 C 7.796875 -6.757812 7.898438 -6.382812 7.921875 -6 C 7.953125 -5.613281 7.96875 -5.238281 7.96875 -4.875 L 7.96875 0 L 6.203125 0 L 6.203125 -4.875 C 6.203125 -5.71875 6.0625 -6.296875 5.78125 -6.609375 C 5.539062 -6.867188 5.164062 -7 4.65625 -7 C 4.039062 -7 3.585938 -6.820312 3.296875 -6.46875 C 3.097656 -6.25 2.953125 -5.945312 2.859375 -5.5625 C 2.773438 -5.1875 2.734375 -4.671875 2.734375 -4.015625 Z M 2.734375 0 "/></g></g></g><g fill="#000000" fill-opacity="1"><g transform="translate(113.042778, 82.688336)"><g><path d="M 4.328125 0.15625 C 3.597656 0.15625 2.957031 -0.0234375 2.40625 -0.390625 C 1.851562 -0.753906 1.421875 -1.257812 1.109375 -1.90625 C 0.804688 -2.5625 0.65625 -3.3125 0.65625 -4.15625 C 0.65625 -5.007812 0.804688 -5.757812 1.109375 -6.40625 C 1.421875 -7.050781 1.851562 -7.554688 2.40625 -7.921875 C 2.957031 -8.296875 3.597656 -8.484375 4.328125 -8.484375 C 4.828125 -8.484375 5.273438 -8.390625 5.671875 -8.203125 C 6.066406 -8.023438 6.445312 -7.691406 6.8125 -7.203125 L 6.8125 -11.375 L 8.578125 -11.375 L 8.578125 0 L 6.8125 0 L 6.8125 -1.140625 C 6.445312 -0.648438 6.070312 -0.3125 5.6875 -0.125 C 5.300781 0.0625 4.847656 0.15625 4.328125 0.15625 Z M 4.6875 -1.359375 C 5.132812 -1.359375 5.53125 -1.476562 5.875 -1.71875 C 6.21875 -1.957031 6.488281 -2.285156 6.6875 -2.703125 C 6.882812 -3.128906 6.984375 -3.613281 6.984375 -4.15625 C 6.984375 -4.707031 6.882812 -5.191406 6.6875 -5.609375 C 6.488281 -6.035156 6.21875 -6.367188 5.875 -6.609375 C 5.53125 -6.847656 5.132812 -6.96875 4.6875 -6.96875 C 4.226562 -6.96875 3.828125 -6.84375 3.484375 -6.59375 C 3.148438 -6.351562 2.890625 -6.019531 2.703125 -5.59375 C 2.523438 -5.175781 2.4375 -4.695312 2.4375 -4.15625 C 2.4375 -3.625 2.523438 -3.144531 2.703125 -2.71875 C 2.890625 -2.300781 3.148438 -1.96875 3.484375 -1.71875 C 3.828125 -1.476562 4.226562 -1.359375 4.6875 -1.359375 Z M 4.6875 -1.359375 "/></g></g></g><g fill="#000000" fill-opacity="1"><g transform="translate(122.584231, 82.688336)"><g><path d="M 3.34375 0.15625 C 2.539062 0.15625 1.882812 -0.0507812 1.375 -0.46875 C 0.875 -0.894531 0.625 -1.492188 0.625 -2.265625 C 0.625 -2.671875 0.707031 -3.023438 0.875 -3.328125 C 1.039062 -3.628906 1.257812 -3.882812 1.53125 -4.09375 C 1.789062 -4.28125 2.082031 -4.429688 2.40625 -4.546875 C 2.738281 -4.660156 3.09375 -4.753906 3.46875 -4.828125 L 6.109375 -5.328125 C 6.097656 -5.878906 5.953125 -6.304688 5.671875 -6.609375 C 5.359375 -6.910156 4.9375 -7.0625 4.40625 -7.0625 C 3.988281 -7.0625 3.617188 -6.941406 3.296875 -6.703125 C 2.972656 -6.460938 2.773438 -6.128906 2.703125 -5.703125 L 0.9375 -5.703125 C 1.039062 -6.328125 1.265625 -6.84375 1.609375 -7.25 C 1.953125 -7.664062 2.375 -7.972656 2.875 -8.171875 C 3.375 -8.378906 3.890625 -8.484375 4.421875 -8.484375 C 4.910156 -8.484375 5.375 -8.414062 5.8125 -8.28125 C 6.25 -8.144531 6.625 -7.929688 6.9375 -7.640625 C 7.238281 -7.359375 7.453125 -7.035156 7.578125 -6.671875 C 7.710938 -6.304688 7.789062 -5.9375 7.8125 -5.5625 C 7.84375 -5.1875 7.859375 -4.835938 7.859375 -4.515625 L 7.859375 0 L 6.09375 0 L 6.09375 -1.1875 C 5.875 -0.8125 5.597656 -0.515625 5.265625 -0.296875 C 5.003906 -0.128906 4.710938 -0.015625 4.390625 0.046875 C 4.066406 0.117188 3.71875 0.15625 3.34375 0.15625 Z M 3.71875 -1.265625 C 4.132812 -1.265625 4.519531 -1.347656 4.875 -1.515625 C 5.375 -1.765625 5.707031 -2.085938 5.875 -2.484375 C 6.039062 -2.890625 6.125 -3.394531 6.125 -4 L 3.90625 -3.5625 C 3.332031 -3.445312 2.925781 -3.28125 2.6875 -3.0625 C 2.488281 -2.851562 2.390625 -2.601562 2.390625 -2.3125 C 2.390625 -1.96875 2.507812 -1.707031 2.75 -1.53125 C 3 -1.351562 3.320312 -1.265625 3.71875 -1.265625 Z M 3.71875 -1.265625 "/></g></g></g><g fill="#000000" fill-opacity="1"><g transform="translate(131.320622, 82.688336)"><g><path d="M 5.0625 0 L 3.578125 0 C 2.960938 0 2.484375 -0.140625 2.140625 -0.421875 C 1.796875 -0.703125 1.625 -1.203125 1.625 -1.921875 L 1.625 -6.875 L 0.375 -6.875 L 0.375 -8.328125 L 1.625 -8.328125 L 1.625 -11.375 L 3.390625 -11.375 L 3.390625 -8.328125 L 5.078125 -8.328125 L 5.078125 -6.875 L 3.390625 -6.875 L 3.390625 -2.421875 C 3.390625 -2.148438 3.429688 -1.921875 3.515625 -1.734375 C 3.597656 -1.554688 3.820312 -1.46875 4.1875 -1.46875 L 5.0625 -1.46875 Z M 5.0625 0 "/></g></g></g><g fill="#000000" fill-opacity="1"><g transform="translate(136.926224, 82.688336)"><g><path d="M 1.84375 -9.40625 C 1.539062 -9.40625 1.273438 -9.503906 1.046875 -9.703125 C 0.816406 -9.910156 0.703125 -10.171875 0.703125 -10.484375 C 0.703125 -10.796875 0.816406 -11.050781 1.046875 -11.25 C 1.273438 -11.445312 1.539062 -11.546875 1.84375 -11.546875 C 2.164062 -11.546875 2.4375 -11.445312 2.65625 -11.25 C 2.882812 -11.050781 3 -10.796875 3 -10.484375 C 3 -10.171875 2.882812 -9.910156 2.65625 -9.703125 C 2.4375 -9.503906 2.164062 -9.40625 1.84375 -9.40625 Z M 2.734375 0 L 0.96875 0 L 0.96875 -8.328125 L 2.734375 -8.328125 Z M 2.734375 0 "/></g></g></g><g fill="#000000" fill-opacity="1"><g transform="translate(140.608634, 82.688336)"><g><path d="M 4.8125 0.15625 C 3.988281 0.15625 3.257812 -0.0234375 2.625 -0.390625 C 2 -0.753906 1.507812 -1.265625 1.15625 -1.921875 C 0.800781 -2.578125 0.625 -3.335938 0.625 -4.203125 C 0.625 -5.035156 0.800781 -5.773438 1.15625 -6.421875 C 1.507812 -7.066406 2 -7.570312 2.625 -7.9375 C 3.257812 -8.300781 3.988281 -8.484375 4.8125 -8.484375 C 5.632812 -8.484375 6.359375 -8.300781 6.984375 -7.9375 C 7.617188 -7.570312 8.113281 -7.066406 8.46875 -6.421875 C 8.832031 -5.773438 9.015625 -5.035156 9.015625 -4.203125 C 9.015625 -3.347656 8.835938 -2.59375 8.484375 -1.9375 C 8.128906 -1.28125 7.632812 -0.765625 7 -0.390625 C 6.375 -0.0234375 5.644531 0.15625 4.8125 0.15625 Z M 4.8125 -1.375 C 5.28125 -1.375 5.695312 -1.492188 6.0625 -1.734375 C 6.425781 -1.984375 6.707031 -2.320312 6.90625 -2.75 C 7.113281 -3.175781 7.21875 -3.660156 7.21875 -4.203125 C 7.21875 -4.734375 7.113281 -5.207031 6.90625 -5.625 C 6.707031 -6.039062 6.425781 -6.367188 6.0625 -6.609375 C 5.695312 -6.847656 5.28125 -6.96875 4.8125 -6.96875 C 4.34375 -6.96875 3.925781 -6.847656 3.5625 -6.609375 C 3.207031 -6.378906 2.925781 -6.054688 2.71875 -5.640625 C 2.519531 -5.222656 2.421875 -4.742188 2.421875 -4.203125 C 2.421875 -3.648438 2.523438 -3.160156 2.734375 -2.734375 C 2.941406 -2.304688 3.222656 -1.972656 3.578125 -1.734375 C 3.941406 -1.492188 4.351562 -1.375 4.8125 -1.375 Z M 4.8125 -1.375 "/></g></g></g><g fill="#000000" fill-opacity="1"><g transform="translate(150.254446, 82.688336)"><g><path d="M 2.734375 0 L 0.96875 0 L 0.96875 -8.328125 L 2.734375 -8.328125 L 2.734375 -7.203125 C 3.097656 -7.691406 3.460938 -8.023438 3.828125 -8.203125 C 4.191406 -8.390625 4.597656 -8.484375 5.046875 -8.484375 C 5.773438 -8.484375 6.332031 -8.347656 6.71875 -8.078125 C 7.113281 -7.816406 7.410156 -7.5 7.609375 -7.125 C 7.796875 -6.757812 7.898438 -6.382812 7.921875 -6 C 7.953125 -5.613281 7.96875 -5.238281 7.96875 -4.875 L 7.96875 0 L 6.203125 0 L 6.203125 -4.875 C 6.203125 -5.71875 6.0625 -6.296875 5.78125 -6.609375 C 5.539062 -6.867188 5.164062 -7 4.65625 -7 C 4.039062 -7 3.585938 -6.820312 3.296875 -6.46875 C 3.097656 -6.25 2.953125 -5.945312 2.859375 -5.5625 C 2.773438 -5.1875 2.734375 -4.671875 2.734375 -4.015625 Z M 2.734375 0 "/></g></g></g><g fill="#000000" fill-opacity="1"><g transform="translate(159.12502, 82.688336)"><g/></g></g><g fill="#000000" fill-opacity="1"><g transform="translate(163.180144, 82.688336)"><g><path d="M 5.4375 0.1875 C 4.894531 0.1875 4.347656 0.125 3.796875 0 C 3.253906 -0.132812 2.753906 -0.351562 2.296875 -0.65625 C 1.835938 -0.957031 1.453125 -1.347656 1.140625 -1.828125 C 0.835938 -2.316406 0.644531 -2.910156 0.5625 -3.609375 L 2.484375 -3.609375 C 2.617188 -3.046875 2.835938 -2.601562 3.140625 -2.28125 C 3.453125 -1.96875 3.8125 -1.75 4.21875 -1.625 C 4.632812 -1.5 5.050781 -1.4375 5.46875 -1.4375 C 6.132812 -1.4375 6.675781 -1.578125 7.09375 -1.859375 C 7.507812 -2.140625 7.71875 -2.566406 7.71875 -3.140625 C 7.71875 -3.585938 7.582031 -3.929688 7.3125 -4.171875 C 7.039062 -4.421875 6.6875 -4.613281 6.25 -4.75 C 5.8125 -4.882812 5.335938 -5.003906 4.828125 -5.109375 C 4.367188 -5.210938 3.910156 -5.328125 3.453125 -5.453125 C 2.992188 -5.578125 2.578125 -5.75 2.203125 -5.96875 C 1.828125 -6.195312 1.523438 -6.492188 1.296875 -6.859375 C 1.066406 -7.222656 0.953125 -7.695312 0.953125 -8.28125 C 0.953125 -8.988281 1.125 -9.582031 1.46875 -10.0625 C 1.8125 -10.550781 2.273438 -10.921875 2.859375 -11.171875 C 3.453125 -11.421875 4.125 -11.546875 4.875 -11.546875 C 5.582031 -11.546875 6.25 -11.425781 6.875 -11.1875 C 7.5 -10.945312 8.03125 -10.566406 8.46875 -10.046875 C 8.90625 -9.535156 9.179688 -8.878906 9.296875 -8.078125 L 7.40625 -8.078125 C 7.25 -8.734375 6.929688 -9.203125 6.453125 -9.484375 C 5.984375 -9.773438 5.445312 -9.921875 4.84375 -9.921875 C 4.238281 -9.921875 3.753906 -9.789062 3.390625 -9.53125 C 3.023438 -9.28125 2.84375 -8.921875 2.84375 -8.453125 C 2.84375 -8.066406 2.96875 -7.765625 3.21875 -7.546875 C 3.476562 -7.328125 3.8125 -7.15625 4.21875 -7.03125 C 4.625 -6.914062 5.066406 -6.800781 5.546875 -6.6875 C 6.023438 -6.59375 6.5 -6.472656 6.96875 -6.328125 C 7.445312 -6.191406 7.882812 -6.003906 8.28125 -5.765625 C 8.6875 -5.535156 9.007812 -5.21875 9.25 -4.8125 C 9.488281 -4.414062 9.609375 -3.898438 9.609375 -3.265625 C 9.609375 -2.210938 9.242188 -1.375 8.515625 -0.75 C 7.796875 -0.125 6.769531 0.1875 5.4375 0.1875 Z M 5.4375 0.1875 "/></g></g></g><g fill="#000000" fill-opacity="1"><g transform="translate(173.452112, 82.688336)"><g><path d="M 2.390625 3.046875 L 1.046875 3.046875 L 1.046875 1.53125 L 1.921875 1.53125 C 2.210938 1.53125 2.4375 1.488281 2.59375 1.40625 C 2.757812 1.320312 2.910156 1.113281 3.046875 0.78125 L 3.34375 -0.03125 L 0.203125 -8.328125 L 2.109375 -8.328125 L 4.265625 -2.09375 L 6.203125 -8.328125 L 8.109375 -8.328125 L 4.703125 1.203125 C 4.460938 1.898438 4.171875 2.378906 3.828125 2.640625 C 3.484375 2.910156 3.003906 3.046875 2.390625 3.046875 Z M 2.390625 3.046875 "/></g></g></g><g fill="#000000" fill-opacity="1"><g transform="translate(181.80089, 82.688336)"><g><path d="M 4.46875 0.15625 C 3.8125 0.15625 3.203125 0.0507812 2.640625 -0.15625 C 2.078125 -0.375 1.613281 -0.695312 1.25 -1.125 C 0.882812 -1.550781 0.648438 -2.09375 0.546875 -2.75 L 2.328125 -2.75 C 2.441406 -2.289062 2.679688 -1.925781 3.046875 -1.65625 C 3.421875 -1.394531 3.894531 -1.265625 4.46875 -1.265625 C 4.9375 -1.265625 5.320312 -1.351562 5.625 -1.53125 C 5.925781 -1.71875 6.078125 -1.984375 6.078125 -2.328125 C 6.078125 -2.609375 5.976562 -2.828125 5.78125 -2.984375 C 5.59375 -3.140625 5.335938 -3.265625 5.015625 -3.359375 C 4.703125 -3.453125 4.363281 -3.535156 4 -3.609375 C 3.632812 -3.679688 3.269531 -3.765625 2.90625 -3.859375 C 2.550781 -3.953125 2.21875 -4.082031 1.90625 -4.25 C 1.601562 -4.414062 1.359375 -4.640625 1.171875 -4.921875 C 0.984375 -5.203125 0.890625 -5.570312 0.890625 -6.03125 C 0.890625 -6.59375 1.035156 -7.050781 1.328125 -7.40625 C 1.617188 -7.769531 2.003906 -8.039062 2.484375 -8.21875 C 2.960938 -8.394531 3.484375 -8.484375 4.046875 -8.484375 C 4.992188 -8.484375 5.785156 -8.238281 6.421875 -7.75 C 7.066406 -7.269531 7.460938 -6.59375 7.609375 -5.71875 L 5.96875 -5.71875 C 5.832031 -6.1875 5.59375 -6.523438 5.25 -6.734375 C 4.90625 -6.953125 4.503906 -7.0625 4.046875 -7.0625 C 3.609375 -7.0625 3.257812 -6.976562 3 -6.8125 C 2.738281 -6.644531 2.609375 -6.414062 2.609375 -6.125 C 2.609375 -5.875 2.703125 -5.675781 2.890625 -5.53125 C 3.078125 -5.394531 3.320312 -5.285156 3.625 -5.203125 C 3.925781 -5.117188 4.257812 -5.046875 4.625 -4.984375 C 4.988281 -4.910156 5.359375 -4.828125 5.734375 -4.734375 C 6.117188 -4.640625 6.46875 -4.503906 6.78125 -4.328125 C 7.09375 -4.148438 7.34375 -3.914062 7.53125 -3.625 C 7.726562 -3.332031 7.828125 -2.945312 7.828125 -2.46875 C 7.828125 -1.6875 7.53125 -1.050781 6.9375 -0.5625 C 6.351562 -0.0820312 5.53125 0.15625 4.46875 0.15625 Z M 4.46875 0.15625 "/></g></g></g><g fill="#000000" fill-opacity="1"><g transform="translate(190.224203, 82.688336)"><g><path d="M 5.0625 0 L 3.578125 0 C 2.960938 0 2.484375 -0.140625 2.140625 -0.421875 C 1.796875 -0.703125 1.625 -1.203125 1.625 -1.921875 L 1.625 -6.875 L 0.375 -6.875 L 0.375 -8.328125 L 1.625 -8.328125 L 1.625 -11.375 L 3.390625 -11.375 L 3.390625 -8.328125 L 5.078125 -8.328125 L 5.078125 -6.875 L 3.390625 -6.875 L 3.390625 -2.421875 C 3.390625 -2.148438 3.429688 -1.921875 3.515625 -1.734375 C 3.597656 -1.554688 3.820312 -1.46875 4.1875 -1.46875 L 5.0625 -1.46875 Z M 5.0625 0 "/></g></g></g><g fill="#000000" fill-opacity="1"><g transform="translate(195.650898, 82.688336)"><g><path d="M 4.78125 0.15625 C 3.945312 0.15625 3.21875 -0.0234375 2.59375 -0.390625 C 1.976562 -0.765625 1.492188 -1.273438 1.140625 -1.921875 C 0.796875 -2.578125 0.625 -3.3125 0.625 -4.125 C 0.625 -4.675781 0.707031 -5.207031 0.875 -5.71875 C 1.050781 -6.238281 1.3125 -6.707031 1.65625 -7.125 C 2 -7.539062 2.425781 -7.867188 2.9375 -8.109375 C 3.457031 -8.359375 4.054688 -8.484375 4.734375 -8.484375 C 5.453125 -8.484375 6.125 -8.332031 6.75 -8.03125 C 7.382812 -7.726562 7.898438 -7.257812 8.296875 -6.625 C 8.691406 -6 8.890625 -5.207031 8.890625 -4.25 L 8.890625 -3.796875 L 2.421875 -3.796875 C 2.429688 -3.640625 2.460938 -3.476562 2.515625 -3.3125 C 2.566406 -3.15625 2.628906 -3.007812 2.703125 -2.875 C 2.898438 -2.40625 3.179688 -2.035156 3.546875 -1.765625 C 3.921875 -1.503906 4.347656 -1.375 4.828125 -1.375 C 5.359375 -1.375 5.800781 -1.507812 6.15625 -1.78125 C 6.507812 -2.0625 6.765625 -2.382812 6.921875 -2.75 L 8.734375 -2.75 C 8.578125 -2.226562 8.328125 -1.742188 7.984375 -1.296875 C 7.640625 -0.847656 7.203125 -0.492188 6.671875 -0.234375 C 6.148438 0.0234375 5.519531 0.15625 4.78125 0.15625 Z M 2.515625 -5.1875 L 7.046875 -5.1875 C 7.035156 -5.300781 7.007812 -5.425781 6.96875 -5.5625 C 6.925781 -5.707031 6.863281 -5.847656 6.78125 -5.984375 C 6.582031 -6.335938 6.304688 -6.601562 5.953125 -6.78125 C 5.597656 -6.957031 5.210938 -7.046875 4.796875 -7.046875 C 3.898438 -7.046875 3.238281 -6.691406 2.8125 -5.984375 C 2.726562 -5.847656 2.660156 -5.707031 2.609375 -5.5625 C 2.566406 -5.414062 2.535156 -5.289062 2.515625 -5.1875 Z M 2.515625 -5.1875 "/></g></g></g><g fill="#000000" fill-opacity="1"><g transform="translate(205.147627, 82.688336)"><g><path d="M 2.734375 0 L 0.96875 0 L 0.96875 -8.328125 L 2.734375 -8.328125 L 2.734375 -7.203125 C 3.085938 -7.679688 3.453125 -8.015625 3.828125 -8.203125 C 4.210938 -8.390625 4.617188 -8.484375 5.046875 -8.484375 C 5.597656 -8.484375 6.070312 -8.363281 6.46875 -8.125 C 6.875 -7.894531 7.148438 -7.546875 7.296875 -7.078125 C 7.566406 -7.597656 7.914062 -7.960938 8.34375 -8.171875 C 8.769531 -8.378906 9.25 -8.484375 9.78125 -8.484375 C 10.71875 -8.484375 11.410156 -8.210938 11.859375 -7.671875 C 12.304688 -7.140625 12.53125 -6.398438 12.53125 -5.453125 L 12.53125 0 L 10.78125 0 L 10.78125 -5.1875 C 10.78125 -5.800781 10.648438 -6.253906 10.390625 -6.546875 C 10.140625 -6.847656 9.789062 -7 9.34375 -7 C 8.851562 -7 8.476562 -6.851562 8.21875 -6.5625 C 8 -6.3125 7.84375 -5.988281 7.75 -5.59375 C 7.664062 -5.207031 7.625 -4.738281 7.625 -4.1875 L 7.625 0 L 5.875 0 L 5.875 -5.1875 C 5.875 -5.789062 5.742188 -6.242188 5.484375 -6.546875 C 5.222656 -6.847656 4.863281 -7 4.40625 -7 C 3.9375 -7 3.570312 -6.84375 3.3125 -6.53125 C 3.125 -6.3125 2.976562 -6.019531 2.875 -5.65625 C 2.78125 -5.300781 2.734375 -4.8125 2.734375 -4.1875 Z M 2.734375 0 "/></g></g></g></svg>